<?xml version="1.0" encoding="iso-8859-1"?>
<svg width="17" height="16" viewBox="0 0 17 16" fill="none" xmlns="http://www.w3.org/2000/svg">
    <mask id="mask0" mask-type="alpha" maskUnits="userSpaceOnUse" x="0" y="0" width="17" height="16">
        <path d="M2.00146 6.99998C2.00146 7.54997 1.55127 7.99998 1.00146 7.99998C0.45166 7.99998 0.00146484 7.54997 0.00146484 6.99998V2.99998C0.00146484 2.45 0.45166 1.99998 1.00146 1.99998H12.4673L12.1733 1.70622C11.7856 1.3156 11.7856 0.678085 12.1733 0.290634C12.564 -0.0968781 13.2017 -0.0968781 13.5894 0.290634L15.7104 2.41246C16.0981 2.80309 16.0981 3.4406 15.7104 3.82811L13.5894 5.95C13.1987 6.33751 12.561 6.33751 12.1733 5.95C11.7856 5.55937 11.7856 4.92186 12.1733 4.53435L12.7075 3.99998H2.00146V6.99998Z" fill="#6B6C7E"/>
        <path d="M14.0015 8.99998C14.0015 8.45 14.4517 7.99998 15.0015 7.99998C15.5513 7.99998 16.0015 8.45 16.0015 8.99998V13C16.0015 13.55 15.5513 14 15.0015 14H3.53564L3.82959 14.2937C4.21729 14.6844 4.21729 15.3219 3.82959 15.7093C3.43896 16.0968 2.80127 16.0968 2.41357 15.7093L0.29248 13.5875C-0.0952148 13.1969 -0.0952148 12.5594 0.29248 12.1719L2.41357 10.05C2.8042 9.66246 3.44189 9.66246 3.82959 10.05C4.21729 10.4406 4.21729 11.0781 3.82959 11.4656L3.29541 12H14.0015V8.99998Z" fill="#6B6C7E"/>
    </mask>
    <g mask="url(#mask0)">
        <rect x="0.00146484" width="16" height="16" fill="#6B6C7E"/>
    </g>
</svg>
