<?xml version="1.0" encoding="iso-8859-1"?>
<!-- Generator: Adobe Illustrator 19.0.0, SVG Export Plug-In . SVG Version: 6.00 Build 0)  -->
<svg version="1.1" id="Capa_1" xmlns="http://www.w3.org/2000/svg" xmlns:xlink="http://www.w3.org/1999/xlink" x="0px" y="0px"
	 viewBox="0 0 480.119 480.119" style="enable-background:new 0 0 480.119 480.119;" xml:space="preserve">
<g>
	<g>
		<path d="M423.239,120.119c-5.838-0.005-11.642,0.888-17.208,2.648c0.528-4.195,0.795-8.42,0.8-12.648
			C405.792,48.272,354.813-1.023,292.965,0.016c-45.131,0.758-85.397,28.534-102.134,70.455
			C158.463,50.4,115.953,60.37,95.883,92.738c-6.534,10.537-10.106,22.641-10.34,35.037c-8.714-5.031-18.602-7.673-28.664-7.656
			c-30.928,0-56,25.072-56,56c0,30.928,25.072,56,56,56c4.418,0,8-3.582,8-8s-3.582-8-8-8
			c-22.089-0.359-39.704-18.556-39.345-40.645c0.359-22.089,18.556-39.704,40.645-39.345c13.446,0.219,25.882,7.179,33.1,18.525
			c2.42,3.697,7.378,4.732,11.075,2.313c3.195-2.091,4.467-6.148,3.037-9.689c-2.519-6.076-3.834-12.583-3.872-19.16
			c0.321-28.992,24.048-52.253,53.04-52c12.918,0.051,25.38,4.78,35.08,13.312c3.33,2.904,8.384,2.558,11.287-0.772
			c0.787-0.902,1.361-1.97,1.681-3.124c14.638-50.936,67.796-80.361,118.731-65.723c40.442,11.622,68.595,48.236,69.437,90.307
			c-0.034,8.386-1.205,16.729-3.48,24.8c-1.183,4.257,1.308,8.667,5.565,9.85c2.303,0.64,4.772,0.217,6.731-1.154
			c6.92-4.88,15.181-7.498,23.648-7.496c22.091,0,40,17.909,40,40s-17.909,40-40,40c-4.418,0-8,3.582-8,8s3.582,8,8,8
			c30.928,0,56-25.072,56-56C479.239,145.191,454.167,120.119,423.239,120.119z"/>
	</g>
</g>
<g>
	<g>
		<path d="M376.039,304.119h-272c-13.255,0-24,10.745-24,24v32c0,13.255,10.745,24,24,24h272c13.255,0,24-10.745,24-24v-32
			C400.039,314.864,389.294,304.119,376.039,304.119z M384.039,360.119c0,4.418-3.582,8-8,8h-272c-4.418,0-8-3.582-8-8v-32
			c0-4.418,3.582-8,8-8h272c4.418,0,8,3.582,8,8V360.119z"/>
	</g>
</g>
<g>
	<g>
		<path d="M353.847,328.615c-8.525,0.053-15.408,6.978-15.408,15.503c0.04,8.584,7.016,15.517,15.6,15.504
			c8.563-0.053,15.461-7.037,15.408-15.6C369.394,335.46,362.41,328.562,353.847,328.615z M354.039,344.623
			c-0.24,0-0.4-0.264-0.4-0.504l0.4-0.496V344.623z"/>
	</g>
</g>
<g>
	<g>
		<path d="M270.439,336.119h-152c-4.418,0-8,3.582-8,8s3.582,8,8,8h152c4.418,0,8-3.582,8-8S274.858,336.119,270.439,336.119z"/>
	</g>
</g>
<g>
	<g>
		<path d="M319.839,336.119h-21.28c-4.418,0-8,3.582-8,8s3.582,8,8,8h21.28c4.418,0,8-3.582,8-8S324.258,336.119,319.839,336.119z"
			/>
	</g>
</g>
<g>
	<g>
		<path d="M376.039,400.119h-272c-13.255,0-24,10.745-24,24v32c0,13.255,10.745,24,24,24h272c13.255,0,24-10.745,24-24v-32
			C400.039,410.864,389.294,400.119,376.039,400.119z M384.039,456.119c0,4.418-3.582,8-8,8h-272c-4.418,0-8-3.582-8-8v-32
			c0-4.418,3.582-8,8-8h272c4.418,0,8,3.582,8,8V456.119z"/>
	</g>
</g>
<g>
	<g>
		<path d="M353.847,424.615c-8.525,0.053-15.408,6.978-15.408,15.503c0.04,8.584,7.016,15.517,15.6,15.504
			c8.563-0.053,15.461-7.037,15.408-15.6C369.394,431.46,362.41,424.562,353.847,424.615z M354.039,440.623
			c-0.24,0-0.4-0.264-0.4-0.504l0.4-0.496V440.623z"/>
	</g>
</g>
<g>
	<g>
		<path d="M270.439,432.119h-152c-4.418,0-8,3.582-8,8s3.582,8,8,8h152c4.418,0,8-3.582,8-8S274.858,432.119,270.439,432.119z"/>
	</g>
</g>
<g>
	<g>
		<path d="M319.839,432.119h-21.28c-4.418,0-8,3.582-8,8s3.582,8,8,8h21.28c4.418,0,8-3.582,8-8S324.258,432.119,319.839,432.119z"
			/>
	</g>
</g>
<g>
	<g>
		<path d="M376.039,208.119h-272c-13.255,0-24,10.745-24,24v32c0,13.255,10.745,24,24,24h272c13.255,0,24-10.745,24-24v-32
			C400.039,218.864,389.294,208.119,376.039,208.119z M384.039,264.119c0,4.418-3.582,8-8,8h-272c-4.418,0-8-3.582-8-8v-32
			c0-4.418,3.582-8,8-8h272c4.418,0,8,3.582,8,8V264.119z"/>
	</g>
</g>
<g>
	<g>
		<path d="M366.935,245.935c-1.542-8.499-9.681-14.139-18.18-12.597c-4.027,0.73-7.607,3.01-9.972,6.349
			c-2.375,3.352-3.303,7.517-2.576,11.56c1.346,7.447,7.825,12.865,15.392,12.872c0.874-0.001,1.746-0.073,2.608-0.216
			c4.108-0.678,7.769-2.986,10.152-6.4C366.742,254.151,367.671,249.98,366.935,245.935z M351.191,248.751l0.36-0.632l0.04,1
			C351.231,249.119,351.207,248.919,351.191,248.751z"/>
	</g>
</g>
<g>
	<g>
		<path d="M268.839,240.119h-152c-4.418,0-8,3.582-8,8s3.582,8,8,8h152c4.418,0,8-3.582,8-8S273.258,240.119,268.839,240.119z"/>
	</g>
</g>
<g>
	<g>
		<path d="M314.727,240.119h-21.28c-4.418,0-8,3.582-8,8s3.582,8,8,8h21.28c4.418,0,8-3.582,8-8S319.146,240.119,314.727,240.119z"
			/>
	</g>
</g>
<g>
	<g>
		<path d="M205.695,130.463l-24-24c-3.124-3.123-8.188-3.123-11.312,0l-24,24c-3.069,3.178-2.981,8.243,0.197,11.312
			c3.1,2.994,8.015,2.994,11.115,0l10.344-10.344v52.688c0,4.418,3.582,8,8,8s8-3.582,8-8v-52.688l10.344,10.344
			c3.178,3.069,8.243,2.981,11.312-0.197C208.689,138.478,208.689,133.563,205.695,130.463z"/>
	</g>
</g>
<g>
	<g>
		<path d="M333.499,154.463c-3.1-2.994-8.015-2.994-11.116,0l-10.344,10.344v-52.688c0-4.418-3.582-8-8-8s-8,3.582-8,8v52.688
			l-10.344-10.344c-3.178-3.07-8.242-2.982-11.312,0.196c-2.994,3.1-2.994,8.015,0,11.116l24,24c3.124,3.123,8.188,3.123,11.312,0
			l24-24C336.765,162.597,336.677,157.532,333.499,154.463z"/>
	</g>
</g>
<g>
</g>
<g>
</g>
<g>
</g>
<g>
</g>
<g>
</g>
<g>
</g>
<g>
</g>
<g>
</g>
<g>
</g>
<g>
</g>
<g>
</g>
<g>
</g>
<g>
</g>
<g>
</g>
<g>
</g>
</svg>
