<?xml version="1.0" encoding="iso-8859-1"?>
<!-- Generator: Adobe Illustrator 19.0.0, SVG Export Plug-In . SVG Version: 6.00 Build 0)  -->
<svg version="1.1" id="Capa_1" xmlns="http://www.w3.org/2000/svg" xmlns:xlink="http://www.w3.org/1999/xlink" x="0px" y="0px"
	 viewBox="0 0 480 480" style="enable-background:new 0 0 480 480;" xml:space="preserve">
<g>
	<g>
		<path d="M472,336c0.057-61.798-49.993-111.943-111.792-112c-0.069,0-0.139,0-0.208,0c-5.357,0.038-10.705,0.466-16,1.28V40
			c0-4.418-3.582-8-8-8h-96V16c0-8.837-7.163-16-16-16h-96c-8.837,0-16,7.163-16,16v16H16c-4.418,0-8,3.582-8,8v432
			c0,4.418,3.582,8,8,8h320c4.418,0,8-3.582,8-8v-25.28c47.793,7.345,94.814-17.221,116.08-60.648
			C467.927,370.548,472.01,353.395,472,336L472,336z M448.194,298.019c0.258,0.598,0.509,1.198,0.754,1.801l-85.004,26.58
			l-41.904-78.552C370.731,226.866,427.212,249.328,448.194,298.019z M128,16h96v48h-96V16z M328,464H24V48h88v16
			c0,8.837,7.163,16,16,16h96c8.837,0,16-7.163,16-16V48h88v180.888c-7.164,2.063-14.1,4.845-20.704,8.304
			c-54.562,29.083-75.217,96.891-46.134,151.453c14.08,26.414,38.151,46.09,66.838,54.634V464z M360,432L360,432
			c-53.019-0.016-95.987-43.009-95.971-96.029c0.01-32.576,16.538-62.924,43.899-80.603l45.016,84.4l0.056,0.08
			c0.128,0.232,0.312,0.416,0.456,0.632c0.262,0.411,0.559,0.799,0.888,1.16l0.104,0.112c0.179,0.147,0.366,0.283,0.56,0.408
			c0.372,0.303,0.771,0.571,1.192,0.8c0.08,0.04,0.136,0.112,0.224,0.16l85.488,42.744C424.607,414.562,393.512,432.076,360,432z
			 M449.08,371.6l-67.752-33.88l10.856-3.4l61.528-19.2c1.522,6.856,2.289,13.857,2.288,20.88
			C456.013,348.202,453.663,360.291,449.08,371.6z"/>
	</g>
</g>
<g>
	<g>
		<path d="M154.48,120.736c-21.624-27.87-61.748-32.933-89.618-11.309c-4.917,3.815-9.25,8.329-12.862,13.397l6.504,4.656
			l-6.512-4.656c-20.563,28.711-13.957,68.656,14.755,89.219C77.61,219.823,90.638,224.004,104,224c35.33-0.04,63.96-28.67,64-64
			C168.033,145.765,163.271,131.933,154.48,120.736z M112,112.744c9.114,1.538,17.58,5.709,24.352,12l-12.92,10.048
			c-3.384-2.654-7.274-4.589-11.432-5.688V112.744z M103.846,144.007c4.981-0.023,9.686,2.287,12.714,6.241
			c2.207,2.773,3.418,6.208,3.44,9.752c0,8.837-7.163,16-16,16s-16-7.163-16-16C87.959,151.208,95.054,144.047,103.846,144.007z
			 M96,112.8v16.296c-4.592,1.203-8.86,3.411-12.496,6.464l-13.256-9.464C77.262,119.123,86.254,114.48,96,112.8z M95.721,207.003
			C72.858,203,56.134,183.211,56,160c0.003-7.269,1.675-14.44,4.888-20.96l13.344,9.528C72.783,152.207,72.026,156.084,72,160
			c-0.022,17.638,14.258,31.954,31.896,31.976c14.587,0.018,27.332-9.849,30.968-23.976h16.416
			C146.708,194.112,121.834,211.575,95.721,207.003z M134.856,152c-0.411-1.576-0.946-3.117-1.6-4.608l13.008-10.112
			c2.494,4.591,4.205,9.566,5.064,14.72H134.856z"/>
	</g>
</g>
<g>
	<g>
		<rect x="200" y="104" width="104" height="16"/>
	</g>
</g>
<g>
	<g>
		<rect x="200" y="136" width="104" height="16"/>
	</g>
</g>
<g>
	<g>
		<rect x="200" y="168" width="104" height="16"/>
	</g>
</g>
<g>
	<g>
		<rect x="200" y="200" width="56" height="16"/>
	</g>
</g>
<g>
	<g>
		<path d="M72,392H48c-4.418,0-8,3.582-8,8v40c0,4.418,3.582,8,8,8h24c4.418,0,8-3.582,8-8v-40C80,395.582,76.418,392,72,392z
			 M64,432h-8v-24h8V432z"/>
	</g>
</g>
<g>
	<g>
		<path d="M120,360H96c-4.418,0-8,3.582-8,8v72c0,4.418,3.582,8,8,8h24c4.418,0,8-3.582,8-8v-72C128,363.582,124.418,360,120,360z
			 M112,432h-8v-56h8V432z"/>
	</g>
</g>
<g>
	<g>
		<path d="M168,320h-24c-4.418,0-8,3.582-8,8v112c0,4.418,3.582,8,8,8h24c4.418,0,8-3.582,8-8V328C176,323.582,172.418,320,168,320z
			 M160,432h-8v-96h8V432z"/>
	</g>
</g>
<g>
	<g>
		<path d="M216,280h-24c-4.418,0-8,3.582-8,8v152c0,4.418,3.582,8,8,8h24c4.418,0,8-3.582,8-8V288C224,283.582,220.418,280,216,280z
			 M208,432h-8V296h8V432z"/>
	</g>
</g>
<g>
	<g>
		<rect x="40" y="240" width="64" height="16"/>
	</g>
</g>
<g>
	<g>
		<rect x="40" y="264" width="64" height="16"/>
	</g>
</g>
<g>
	<g>
		<rect x="40" y="288" width="32" height="16"/>
	</g>
</g>
<g>
</g>
<g>
</g>
<g>
</g>
<g>
</g>
<g>
</g>
<g>
</g>
<g>
</g>
<g>
</g>
<g>
</g>
<g>
</g>
<g>
</g>
<g>
</g>
<g>
</g>
<g>
</g>
<g>
</g>
</svg>
