<?xml version="1.0" encoding="iso-8859-1"?>
<!-- Generator: Adobe Illustrator 19.0.0, SVG Export Plug-In . SVG Version: 6.00 Build 0)  -->
<svg version="1.1" id="Capa_1" xmlns="http://www.w3.org/2000/svg" xmlns:xlink="http://www.w3.org/1999/xlink" x="0px" y="0px"
	 viewBox="0 0 480 480" style="enable-background:new 0 0 480 480;" xml:space="preserve">
<g>
	<g>
		<path d="M344,336h-48c-2.122,0-4.156,0.844-5.656,2.344L240,388.688l-50.344-50.344c-1.5-1.5-3.534-2.344-5.656-2.344h-48
			c-69.528,0-120,50.832-120,120.872V472c0,4.418,3.582,8,8,8s8-3.582,8-8v-15.128C32,396.112,75.736,352,136,352h44.688
			l53.656,53.656c3.124,3.123,8.188,3.123,11.312,0L299.312,352H344c60.264,0,104,44.112,104,104.872V472c0,4.418,3.582,8,8,8
			s8-3.582,8-8v-15.128C464,386.832,413.528,336,344,336z"/>
	</g>
</g>
<g>
	<g>
		<path d="M382.4,110.16c-4.351-22.873-15.796-43.794-32.712-59.792C321.579,19.248,281.922,1.038,240,0
			c-41.919,1.032-81.575,19.233-109.688,50.344c-53.936,46.968-36.376,154.88-34.184,167.072
			c1.784,9.936,2.672,27.856-11.408,36.224c-7.396,4.31-15.179,7.918-23.248,10.776c-4.191,1.399-6.454,5.931-5.054,10.122
			c0.392,1.174,1.052,2.242,1.926,3.118c15.528,16.832,37.218,26.647,60.112,27.2c3.86,0.058,7.713-0.32,11.488-1.128
			c4.278-1.105,6.85-5.468,5.746-9.746c-1.093-4.234-5.384-6.806-9.634-5.774c-16.902,2.356-34.006-2.618-47.008-13.672
			c4.748-2.142,9.374-4.545,13.856-7.2c16.336-9.712,23.248-28.96,18.968-52.8c-7.36-40.936-9.472-119.208,29.336-152.464
			c0.335-0.286,0.645-0.599,0.928-0.936C142.512,60.68,180.688,16,240,16s97.488,44.68,97.864,45.136
			c0.285,0.338,0.595,0.654,0.928,0.944c14.591,13.843,24.409,31.962,28.04,51.744c0.856,3.603,4.072,6.148,7.776,6.152
			c0.625-0.001,1.248-0.074,1.856-0.216C380.748,118.739,383.401,114.448,382.4,110.16z"/>
	</g>
</g>
<g>
	<g>
		<path d="M421.65,266.374c-0.875-0.874-1.941-1.534-3.114-1.926c-7.927-2.806-15.581-6.333-22.864-10.536
			c-3.811-2.238-8.714-0.963-10.952,2.848c-2.238,3.811-0.963,8.714,2.848,10.952c4.338,2.533,8.808,4.833,13.392,6.888
			c-13.012,11.08-30.15,16.052-47.072,13.656c-4.29-1.058-8.626,1.562-9.684,5.852c-1.058,4.29,1.562,8.626,5.852,9.684v-0.032
			c3.775,0.808,7.628,1.186,11.488,1.128c22.894-0.553,44.584-10.368,60.112-27.2C424.779,274.562,424.776,269.497,421.65,266.374z"
			/>
	</g>
</g>
<g>
	<g>
		<path d="M384,144h-31.512c-0.168,0-0.32-0.104-0.488-0.104h-31.896V112c0-4.476-3.628-8.104-8.104-8.104s-8.104,3.628-8.104,8.104
			v31.896h-31.792V112c0-4.476-3.628-8.104-8.104-8.104s-8.104,3.628-8.104,8.104v31.896h-31.792V112
			c0-4.476-3.628-8.104-8.104-8.104s-8.104,3.628-8.104,8.104v31.896h-31.792V112c0-4.476-3.628-8.104-8.104-8.104
			s-8.104,3.628-8.104,8.104v31.896H128c-4.48,0.005-8.108,3.641-8.103,8.121c0,0.16,0.005,0.319,0.015,0.479l4,66.176
			c3.736,70.232,50.048,117.432,115.2,117.432h1.688c17.527,0.141,34.856-3.703,50.68-11.24c4.029-1.94,5.724-6.779,3.784-10.808
			c-1.94-4.029-6.779-5.724-10.808-3.784c-13.638,6.464-28.565,9.746-43.656,9.6h-1.6c-56,0-95.8-41.024-99.056-102.144
			l-3.504-57.648h206.752l-3.504,57.648c-0.272,4.465,3.127,8.304,7.592,8.576c4.465,0.272,8.304-3.127,8.576-7.592L359.632,160H384
			c4.418,0,8,3.582,8,8v48c0,4.418-3.582,8-8,8s-8,3.582-8,8s3.582,8,8,8c13.255,0,24-10.745,24-24v-48
			C408,154.745,397.255,144,384,144z"/>
	</g>
</g>
<g>
	<g>
		<path d="M376,175.896c-4.476,0-8.104,3.628-8.104,8.104c-0.057,48.52-39.376,87.839-87.896,87.896h-1.064
			c-4.476-17.156-22.012-27.436-39.168-22.96s-27.436,22.012-22.96,39.168c4.476,17.156,22.012,27.436,39.168,22.96
			c11.245-2.934,20.027-11.715,22.96-22.96H280c57.468-0.066,104.038-46.636,104.104-104.104
			C384.104,179.524,380.476,175.896,376,175.896z M248,295.896c-8.779,0-15.896-7.117-15.896-15.896s7.117-15.896,15.896-15.896
			s15.896,7.117,15.896,15.896C263.887,288.775,256.775,295.887,248,295.896z"/>
	</g>
</g>
<g>
</g>
<g>
</g>
<g>
</g>
<g>
</g>
<g>
</g>
<g>
</g>
<g>
</g>
<g>
</g>
<g>
</g>
<g>
</g>
<g>
</g>
<g>
</g>
<g>
</g>
<g>
</g>
<g>
</g>
</svg>
