<?xml version="1.0" encoding="iso-8859-1"?>
<!-- Generator: Adobe Illustrator 19.0.0, SVG Export Plug-In . SVG Version: 6.00 Build 0)  -->
<svg version="1.1" id="Capa_1" xmlns="http://www.w3.org/2000/svg" xmlns:xlink="http://www.w3.org/1999/xlink" x="0px" y="0px"
	 viewBox="0 0 481.029 481.029" style="enable-background:new 0 0 481.029 481.029;" xml:space="preserve">
<g>
	<g>
		<path d="M463.046,335.648c-6.639-4.509-14.481-6.916-22.507-6.909c-7.648,0.013-15.129,2.235-21.544,6.4l-34.456-33.76v-60.64h16
			c39.862,0.437,73.888-28.705,79.584-68.16c6.601-43.785-23.543-84.631-67.328-91.232c-3.951-0.596-7.94-0.895-11.936-0.896
			c-13.265-0.028-26.325,3.273-37.984,9.6C345.831,36.799,296.45,0.568,240.539,0.291c-45.832-0.087-88.198,24.388-111.016,64.136
			c-35.555-0.517-64.797,27.886-65.314,63.441c-0.003,0.221-0.005,0.442-0.006,0.663v0.544c-18.74-2.693-37.581,4.193-50.168,18.336
			c-5.405,5.974-9.377,13.101-11.616,20.84c-8.981,29.715,7.827,61.085,37.542,70.066c2.379,0.719,4.804,1.28,7.258,1.678
			c3.083,0.488,6.199,0.736,9.32,0.744h40v60.64l-34.456,33.76c-18.548-11.78-43.133-6.293-54.912,12.255
			c-11.78,18.548-6.293,43.133,12.255,54.912c18.548,11.78,43.133,6.293,54.912-12.255c8.53-13.43,8.237-30.651-0.743-43.784
			l36.544-35.816c1.535-1.504,2.4-3.563,2.4-5.712v-64h56v160.8c-21.645,4.418-35.61,25.547-31.192,47.192
			c4.418,21.645,25.547,35.61,47.192,31.192c21.645-4.418,35.61-25.547,31.192-47.192c-3.207-15.709-15.483-27.985-31.192-31.192
			v-160.8h112v160.8c-21.645,4.418-35.61,25.547-31.192,47.192c4.418,21.645,25.547,35.61,47.192,31.192
			c21.645-4.418,35.61-25.547,31.192-47.192c-3.207-15.709-15.483-27.985-31.192-31.192v-160.8h56v64c0,2.149,0.865,4.208,2.4,5.712
			l36.544,35.816c-12.411,18.276-7.657,43.152,10.619,55.563c18.276,12.411,43.152,7.657,55.563-10.619
			C486.075,372.935,481.321,348.059,463.046,335.648z M40.539,392.739c-13.255,0-24-10.745-24-24s10.745-24,24-24s24,10.745,24,24
			S53.793,392.739,40.539,392.739z M200.539,440.739c0,13.255-10.745,24-24,24s-24-10.745-24-24s10.745-24,24-24
			S200.539,427.484,200.539,440.739z M328.539,440.739c0,13.255-10.745,24-24,24s-24-10.745-24-24s10.745-24,24-24
			S328.539,427.484,328.539,440.739z M56.539,224.739c-2.274-0.006-4.545-0.185-6.792-0.536
			c-11.326-1.842-21.322-8.443-27.464-18.136c-6.265-9.951-7.902-22.132-4.488-33.384c1.549-5.385,4.31-10.343,8.072-14.496
			c7.622-8.675,18.612-13.646,30.16-13.64c4.924-0.022,9.808,0.879,14.4,2.656c4.11,1.62,8.756-0.398,10.376-4.509
			c0.566-1.435,0.704-3.003,0.4-4.515c-0.64-3.176-0.964-6.408-0.968-9.648c0.026-26.561,21.551-48.086,48.112-48.112
			c1.561-0.016,3.122,0.069,4.672,0.256c3.334,0.38,6.567-1.292,8.184-4.232C169.999,21.564,237.832,0.42,292.71,29.217
			c29.277,15.363,50.29,42.855,57.428,75.138c0.95,4.315,5.218,7.043,9.533,6.093c1.107-0.244,2.15-0.72,3.059-1.397
			c10.999-8.22,24.373-12.642,38.104-12.6c35.426,0.082,64.078,28.866,63.996,64.292c-0.082,35.426-28.866,64.078-64.292,63.996
			H56.539z M440.539,392.739c-13.255,0-24-10.745-24-24s10.745-24,24-24s24,10.745,24,24S453.793,392.739,440.539,392.739z"/>
	</g>
</g>
<g>
</g>
<g>
</g>
<g>
</g>
<g>
</g>
<g>
</g>
<g>
</g>
<g>
</g>
<g>
</g>
<g>
</g>
<g>
</g>
<g>
</g>
<g>
</g>
<g>
</g>
<g>
</g>
<g>
</g>
</svg>
