<?xml version="1.0" encoding="utf-8"?>
<!-- Generator: Adobe Illustrator 18.1.0, SVG Export Plug-In . SVG Version: 6.00 Build 0)  -->
<svg version="1.1" id="Layer_1" xmlns="http://www.w3.org/2000/svg" xmlns:xlink="http://www.w3.org/1999/xlink" x="0px" y="0px"
	 viewBox="0 0 31 31" enable-background="new 0 0 31 31" xml:space="preserve">
<g>
	<g>
		<path fill="#0C9BD7" d="M12.9,7.017c1-1.042,2.392-1.688,3.931-1.688c2.046,0,3.832,1.141,4.782,2.835
			c0.827-0.369,1.741-0.575,2.703-0.575c3.691,0,6.683,3.018,6.683,6.742s-2.992,6.742-6.683,6.742
			c-0.451,0-0.891-0.045-1.317-0.131c-0.837,1.493-2.433,2.502-4.264,2.502c-0.767,0-1.492-0.177-2.137-0.492
			c-0.849,1.997-2.826,3.396-5.131,3.396c-2.4,0-4.446-1.519-5.231-3.648c-0.343,0.073-0.699,0.111-1.064,0.111
			C2.317,22.812,0,20.471,0,17.584c0-1.935,1.041-3.625,2.587-4.529c-0.318-0.733-0.495-1.541-0.495-2.391
			c0-3.321,2.696-6.013,6.021-6.013C10.065,4.651,11.8,5.579,12.9,7.017z"/>
	</g>
	<g>
		<g>
			<path fill="#FFFFFF" d="M4.49,15.903c-0.02,0.051,0.007,0.061,0.013,0.07c0.058,0.042,0.117,0.073,0.177,0.107
				c0.316,0.167,0.615,0.217,0.927,0.217c0.636,0,1.031-0.338,1.031-0.882v-0.011c0-0.503-0.446-0.686-0.864-0.818L5.72,14.568
				c-0.315-0.102-0.587-0.191-0.587-0.398v-0.011c0-0.178,0.159-0.308,0.405-0.308c0.274,0,0.599,0.091,0.808,0.207
				c0,0,0.062,0.04,0.084-0.02c0.012-0.032,0.118-0.317,0.129-0.348c0.012-0.033-0.009-0.058-0.031-0.072
				c-0.239-0.145-0.569-0.245-0.911-0.245l-0.063,0c-0.582,0-0.988,0.352-0.988,0.856v0.011c0,0.531,0.448,0.703,0.868,0.823
				l0.067,0.021c0.306,0.094,0.57,0.175,0.57,0.39v0.011c0,0.197-0.172,0.343-0.448,0.343c-0.107,0-0.449-0.002-0.819-0.236
				c-0.045-0.026-0.07-0.045-0.105-0.066c-0.018-0.011-0.064-0.031-0.084,0.029L4.49,15.903z"/>
			<path fill="#FFFFFF" d="M13.799,15.903c-0.02,0.051,0.007,0.061,0.013,0.07c0.058,0.042,0.117,0.073,0.177,0.107
				c0.316,0.167,0.615,0.217,0.927,0.217c0.636,0,1.031-0.338,1.031-0.882v-0.011c0-0.503-0.446-0.686-0.864-0.818l-0.055-0.018
				c-0.315-0.102-0.587-0.191-0.587-0.398v-0.011c0-0.178,0.159-0.308,0.406-0.308c0.274,0,0.599,0.091,0.808,0.207
				c0,0,0.062,0.04,0.084-0.02c0.012-0.032,0.118-0.317,0.129-0.348c0.012-0.033-0.009-0.058-0.031-0.072
				c-0.239-0.145-0.569-0.245-0.911-0.245l-0.063,0c-0.582,0-0.988,0.352-0.988,0.856v0.011c0,0.531,0.448,0.703,0.868,0.823
				l0.067,0.021c0.306,0.094,0.57,0.175,0.57,0.39v0.011c0,0.197-0.172,0.343-0.448,0.343c-0.107,0-0.449-0.002-0.819-0.236
				c-0.045-0.026-0.071-0.044-0.105-0.066c-0.012-0.007-0.065-0.028-0.084,0.029L13.799,15.903z"/>
			<path fill="#FFFFFF" d="M20.685,14.266c-0.052-0.176-0.134-0.332-0.242-0.461c-0.108-0.13-0.245-0.234-0.408-0.31
				c-0.162-0.076-0.354-0.114-0.569-0.114c-0.215,0-0.407,0.038-0.569,0.114c-0.162,0.076-0.299,0.18-0.408,0.31
				c-0.108,0.13-0.189,0.285-0.242,0.461c-0.052,0.175-0.078,0.367-0.078,0.57c0,0.204,0.026,0.395,0.078,0.57
				c0.052,0.176,0.133,0.331,0.242,0.461c0.108,0.13,0.246,0.234,0.408,0.307c0.162,0.074,0.354,0.111,0.569,0.111
				c0.215,0,0.406-0.038,0.569-0.111c0.162-0.074,0.299-0.177,0.408-0.307c0.108-0.13,0.189-0.285,0.242-0.461
				c0.052-0.175,0.078-0.367,0.078-0.57C20.763,14.633,20.737,14.441,20.685,14.266 M20.154,14.837c0,0.308-0.057,0.55-0.17,0.721
				c-0.112,0.17-0.281,0.252-0.517,0.252c-0.236,0-0.404-0.082-0.514-0.252c-0.111-0.171-0.168-0.414-0.168-0.722
				c0-0.307,0.056-0.549,0.168-0.719c0.11-0.168,0.279-0.25,0.514-0.25c0.236,0,0.405,0.082,0.517,0.25
				C20.097,14.287,20.154,14.529,20.154,14.837"/>
			<path fill-rule="evenodd" clip-rule="evenodd" fill="#FFFFFF" d="M25.044,15.728c-0.017-0.052-0.068-0.032-0.068-0.032
				c-0.077,0.03-0.159,0.057-0.247,0.07c-0.088,0.014-0.186,0.021-0.291,0.021c-0.257,0-0.461-0.077-0.607-0.227
				c-0.146-0.151-0.229-0.395-0.228-0.726c0.001-0.3,0.074-0.526,0.204-0.699c0.129-0.171,0.326-0.259,0.589-0.259
				c0.219,0,0.386,0.025,0.561,0.08c0,0,0.042,0.018,0.061-0.037c0.047-0.129,0.081-0.221,0.131-0.363
				c0.014-0.04-0.02-0.058-0.033-0.063c-0.069-0.027-0.231-0.071-0.354-0.089c-0.115-0.017-0.249-0.027-0.398-0.027
				c-0.223,0-0.422,0.038-0.592,0.114c-0.17,0.076-0.313,0.18-0.427,0.31c-0.114,0.13-0.201,0.285-0.258,0.461
				C23.029,14.438,23,14.63,23,14.834c0,0.44,0.119,0.796,0.353,1.057c0.235,0.262,0.588,0.394,1.048,0.394
				c0.272,0,0.551-0.055,0.752-0.134c0,0,0.038-0.018,0.022-0.063L25.044,15.728z"/>
			<path fill-rule="evenodd" clip-rule="evenodd" fill="#FFFFFF" d="M27.76,14.166c-0.045-0.17-0.157-0.342-0.23-0.421
				c-0.116-0.124-0.229-0.212-0.341-0.26c-0.146-0.063-0.322-0.104-0.515-0.104c-0.224,0-0.428,0.038-0.593,0.115
				c-0.165,0.078-0.304,0.184-0.414,0.316c-0.109,0.132-0.191,0.289-0.243,0.467c-0.052,0.177-0.079,0.37-0.079,0.573
				c0,0.207,0.027,0.4,0.082,0.574c0.055,0.175,0.142,0.329,0.26,0.457c0.118,0.128,0.27,0.229,0.452,0.299
				c0.181,0.07,0.4,0.106,0.652,0.106c0.519-0.002,0.792-0.117,0.905-0.18c0.02-0.011,0.039-0.03,0.015-0.086l-0.118-0.329
				c-0.018-0.049-0.068-0.031-0.068-0.031c-0.129,0.048-0.311,0.134-0.738,0.133c-0.278-0.001-0.485-0.083-0.615-0.211
				c-0.133-0.131-0.198-0.325-0.209-0.598l1.796,0.001c0,0,0.047-0.001,0.052-0.047C27.815,14.921,27.875,14.571,27.76,14.166z
				 M25.973,14.542c0.025-0.171,0.072-0.313,0.145-0.424c0.11-0.168,0.278-0.261,0.514-0.261c0.236,0,0.391,0.093,0.504,0.261
				c0.074,0.111,0.106,0.259,0.119,0.424L25.973,14.542z"/>
			<path fill-rule="evenodd" clip-rule="evenodd" fill="#FFFFFF" d="M13.37,14.166c-0.045-0.17-0.157-0.342-0.23-0.421
				c-0.116-0.124-0.229-0.212-0.341-0.26c-0.147-0.063-0.322-0.104-0.515-0.104c-0.224,0-0.428,0.038-0.593,0.115
				c-0.165,0.078-0.304,0.184-0.414,0.316c-0.109,0.132-0.191,0.289-0.243,0.467c-0.052,0.177-0.079,0.37-0.079,0.573
				c0,0.207,0.027,0.4,0.082,0.574c0.055,0.175,0.142,0.329,0.26,0.457c0.118,0.128,0.27,0.229,0.452,0.299
				c0.181,0.07,0.4,0.106,0.652,0.106c0.519-0.002,0.792-0.117,0.905-0.18c0.02-0.011,0.039-0.03,0.015-0.086l-0.117-0.329
				c-0.018-0.049-0.068-0.031-0.068-0.031c-0.129,0.048-0.311,0.134-0.738,0.133c-0.278-0.001-0.485-0.083-0.615-0.211
				c-0.133-0.131-0.198-0.325-0.209-0.598l1.796,0.001c0,0,0.047-0.001,0.052-0.047C13.425,14.921,13.485,14.571,13.37,14.166z
				 M11.583,14.542c0.025-0.171,0.072-0.313,0.145-0.424c0.11-0.168,0.278-0.261,0.514-0.261c0.236,0,0.391,0.093,0.504,0.261
				c0.074,0.111,0.106,0.259,0.119,0.424L11.583,14.542z"/>
			<path fill="#FFFFFF" d="M8.414,14.456c-0.073-0.005-0.167-0.008-0.281-0.008c-0.154,0-0.303,0.019-0.442,0.057
				c-0.14,0.038-0.267,0.096-0.375,0.174c-0.109,0.078-0.197,0.178-0.261,0.296c-0.064,0.119-0.096,0.258-0.096,0.414
				c0,0.159,0.028,0.297,0.082,0.41c0.055,0.113,0.134,0.208,0.234,0.281c0.1,0.073,0.223,0.126,0.366,0.159
				c0.141,0.032,0.301,0.049,0.476,0.049c0.184,0,0.368-0.015,0.546-0.045c0.176-0.03,0.393-0.074,0.452-0.088
				c0.06-0.014,0.126-0.032,0.126-0.032c0.045-0.011,0.041-0.059,0.041-0.059L9.282,14.42c0-0.361-0.096-0.627-0.286-0.793
				c-0.189-0.165-0.466-0.248-0.825-0.248c-0.135,0-0.352,0.018-0.482,0.044c0,0-0.392,0.076-0.554,0.203
				c0,0-0.035,0.022-0.016,0.071l0.127,0.342c0.016,0.044,0.059,0.029,0.059,0.029s0.014-0.005,0.03-0.015
				c0.346-0.188,0.783-0.182,0.783-0.182c0.194,0,0.344,0.039,0.444,0.116c0.098,0.075,0.148,0.189,0.148,0.428v0.076
				C8.556,14.468,8.414,14.456,8.414,14.456z M7.699,15.718c-0.07-0.056-0.08-0.07-0.104-0.107
				c-0.036-0.055-0.054-0.134-0.054-0.234c0-0.158,0.052-0.271,0.16-0.348c0,0,0.155-0.134,0.521-0.13
				c0.257,0.003,0.488,0.041,0.488,0.041v0.817h0c0,0-0.228,0.049-0.485,0.064C7.86,15.845,7.698,15.718,7.699,15.718z"/>
			<path fill-rule="evenodd" clip-rule="evenodd" fill="#FFFFFF" d="M22.906,13.53c0.014-0.041-0.015-0.06-0.027-0.065
				c-0.031-0.012-0.183-0.044-0.301-0.051c-0.226-0.014-0.351,0.024-0.463,0.075c-0.111,0.05-0.235,0.131-0.304,0.224l0-0.219
				c0-0.03-0.021-0.054-0.052-0.054h-0.461c-0.03,0-0.051,0.024-0.051,0.054v2.68c0,0.03,0.024,0.054,0.054,0.054h0.472
				c0.03,0,0.054-0.024,0.054-0.054v-1.339c0-0.18,0.02-0.359,0.059-0.472c0.039-0.112,0.092-0.2,0.158-0.264
				c0.066-0.064,0.14-0.108,0.222-0.133c0.084-0.026,0.176-0.034,0.241-0.034c0.094,0,0.197,0.024,0.197,0.024
				c0.035,0.004,0.054-0.017,0.066-0.048C22.802,13.825,22.889,13.579,22.906,13.53z"/>
			<path fill-rule="evenodd" clip-rule="evenodd" fill="#FFFFFF" d="M18.475,12.288c-0.057-0.018-0.109-0.03-0.178-0.042
				c-0.069-0.012-0.151-0.019-0.244-0.019c-0.325,0-0.581,0.092-0.761,0.273c-0.179,0.18-0.3,0.454-0.361,0.815l-0.022,0.122h-0.408
				c0,0-0.05-0.002-0.06,0.052l-0.067,0.374c-0.005,0.036,0.011,0.058,0.059,0.058h0.397l-0.403,2.249
				c-0.031,0.181-0.068,0.33-0.108,0.443c-0.04,0.111-0.078,0.195-0.125,0.256c-0.046,0.059-0.089,0.102-0.164,0.127
				c-0.062,0.021-0.133,0.03-0.211,0.03c-0.043,0-0.101-0.007-0.144-0.016c-0.043-0.008-0.065-0.018-0.097-0.032
				c0,0-0.047-0.018-0.065,0.029c-0.015,0.038-0.121,0.329-0.133,0.365c-0.013,0.036,0.005,0.064,0.028,0.072
				c0.053,0.019,0.092,0.031,0.164,0.048c0.1,0.024,0.184,0.025,0.263,0.025c0.165,0,0.316-0.023,0.441-0.068
				c0.126-0.045,0.235-0.125,0.332-0.232c0.105-0.116,0.17-0.237,0.234-0.402c0.062-0.164,0.115-0.367,0.158-0.604l0.405-2.29h0.592
				c0,0,0.05,0.002,0.06-0.052l0.067-0.374c0.005-0.036-0.011-0.058-0.059-0.058h-0.574c0.003-0.013,0.029-0.215,0.095-0.405
				c0.028-0.081,0.081-0.147,0.126-0.192c0.044-0.044,0.095-0.076,0.15-0.094c0.057-0.018,0.122-0.028,0.193-0.028
				c0.054,0,0.107,0.006,0.148,0.015c0.056,0.012,0.077,0.018,0.092,0.022c0.059,0.018,0.066,0.001,0.078-0.028l0.137-0.377
				C18.522,12.31,18.488,12.293,18.475,12.288z"/>
			<path fill-rule="evenodd" clip-rule="evenodd" fill="#FFFFFF" d="M10.448,16.174c0,0.03-0.021,0.054-0.052,0.054H9.92
				c-0.03,0-0.052-0.024-0.052-0.054v-3.835c0-0.03,0.021-0.054,0.052-0.054h0.477c0.03,0,0.052,0.024,0.052,0.054V16.174z"/>
		</g>
	</g>
</g>
</svg>
