<?xml version="1.0" encoding="UTF-8"?><svg id="Layer_1" xmlns="http://www.w3.org/2000/svg" viewBox="0 0 100 100"><defs><style>.cls-1,.cls-2{fill:#fff;}.cls-2{opacity:.5;}</style></defs><path class="cls-1" d="M59.27,83.88h-18.53v-6.37c0-2.26-1.18-4.33-3.09-5.39-.19-.11-.38-.22-.58-.33-1.9-1.13-4.3-1.13-6.26,0l-5.52,3.19-9.27-16.05,5.52-3.19c1.96-1.13,3.13-3.25,3.13-5.67v-.12c0-2.42-1.16-4.54-3.13-5.67l-5.52-3.19,9.27-16.05,5.52,3.19c1.96,1.13,4.36,1.13,6.25,0,.19-.11,.38-.23,.58-.33,1.91-1.07,3.09-3.13,3.09-5.39v-6.37h18.53v6.37c0,2.26,1.18,4.33,3.09,5.39,.2,.11,.39,.22,.58,.34,1.9,1.13,4.29,1.13,6.25,0l5.52-3.19,9.27,16.05-5.52,3.19c-1.96,1.13-3.13,3.25-3.13,5.67v.11c0,2.42,1.16,4.54,3.13,5.67l5.52,3.19-9.27,16.05-5.52-3.19c-1.96-1.13-4.36-1.13-6.25,0-.2,.12-.39,.23-.59,.34-1.9,1.06-3.08,3.13-3.08,5.39v6.37Zm-13.53-5h8.53v-1.37c0-4.07,2.16-7.8,5.64-9.76,.16-.09,.32-.18,.47-.27,3.45-2.05,7.78-2.07,11.31-.03l1.19,.69,4.27-7.39-1.19-.69c-3.48-2.01-5.64-5.84-5.63-10.01l2.5-.05h-2.5v-.05c0-4.16,2.15-8,5.63-10l1.19-.69-4.27-7.39-1.19,.69c-3.52,2.04-7.86,2.02-11.31-.03-.16-.09-.31-.18-.47-.27-3.48-1.95-5.64-5.69-5.64-9.75v-1.37h-8.53v1.37c0,4.07-2.16,7.81-5.64,9.76-.16,.09-.31,.18-.46,.27-3.45,2.06-7.79,2.07-11.31,.03l-1.19-.69-4.27,7.39,1.19,.69c3.48,2.01,5.64,5.85,5.63,10.01,0,4.26-2.15,8.09-5.63,10.1l-1.19,.69,4.27,7.39,1.19-.69c3.52-2.04,7.86-2.02,11.31,.03,.15,.09,.31,.18,.47,.27,3.48,1.95,5.64,5.69,5.64,9.76v1.37Z"/><polygon class="cls-2" points="48.61 58.32 37.73 47.43 41.27 43.9 48.61 51.25 58.73 41.12 62.27 44.66 48.61 58.32"/></svg>