<?xml version="1.0" encoding="UTF-8"?><svg id="Layer_1" xmlns="http://www.w3.org/2000/svg" viewBox="0 0 100 100"><defs><style>.cls-1{fill:inherit;}.cls-2{opacity:.5;}</style></defs><path fill="currentColor" class="cls-1" d="M78.48,83.98H21.52c-3.03,0-5.5-2.47-5.5-5.5V21.52c0-3.03,2.47-5.5,5.5-5.5h56.97c3.03,0,5.5,2.47,5.5,5.5v56.97c0,3.03-2.47,5.5-5.5,5.5ZM21.52,21.02c-.28,0-.5,.22-.5,.5v56.97c0,.28,.22,.5,.5,.5h56.97c.28,0,.5-.22,.5-.5V21.52c0-.28-.22-.5-.5-.5H21.52Z"/><g class="cls-2"><rect fill="currentColor" class="cls-1" x="29.13" y="33.44" width="8.66" height="5"/><rect fill="currentColor" class="cls-1" x="45.46" y="33.44" width="25.41" height="5"/></g><g class="cls-2"><rect fill="currentColor" class="cls-1" x="29.13" y="48.52" width="8.66" height="5"/><rect fill="currentColor" class="cls-1" x="45.46" y="48.52" width="25.41" height="5"/></g><g class="cls-2"><rect fill="currentColor" class="cls-1" x="29.13" y="63.6" width="8.66" height="5"/><rect fill="currentColor" class="cls-1" x="45.46" y="63.6" width="25.41" height="5"/></g></svg>