<?xml version="1.0" encoding="UTF-8"?><svg id="Layer_1" xmlns="http://www.w3.org/2000/svg" viewBox="0 0 100 100"><defs><style>.cls-1,.cls-2{fill:#fff;}.cls-2{opacity:.5;}</style></defs><path class="cls-1" d="M78.32,83.96H21.68c-1.22,0-2.41-.51-3.25-1.39-.84-.88-1.3-2.09-1.24-3.31l1.79-39.79c.11-2.41,2.08-4.3,4.5-4.3h53.06c2.41,0,4.39,1.89,4.5,4.3h0s1.79,39.78,1.79,39.78c.05,1.22-.4,2.43-1.24,3.31-.84,.88-2.03,1.39-3.25,1.39Zm-56.12-5h55.59l-1.75-38.78H23.95l-1.75,38.78Z"/><path class="cls-2" d="M69.2,30.12h-5c0-7.83-6.37-14.2-14.2-14.2s-14.2,6.37-14.2,14.2h-5c0-10.59,8.61-19.2,19.2-19.2s19.2,8.61,19.2,19.2Z"/><path class="cls-2" d="M49.93,65.63c-10.59,0-19.2-8.61-19.2-19.2h5c0,7.83,6.37,14.2,14.2,14.2s14.2-6.37,14.2-14.2h5c0,10.59-8.61,19.2-19.2,19.2Z"/></svg>