<?xml version="1.0" encoding="UTF-8"?>
<svg id="Layer_1" data-name="Layer 1" xmlns="http://www.w3.org/2000/svg" viewBox="0 0 100 100">
  <defs>
    <style>
      .cls-1, .cls-2 {
        fill: inherit;
      }
      .cls-3, .cls-2 {
        opacity: .5;
      }
    </style>
  </defs>
  <path fill="currentColor" class="cls-1" d="m76.67,83.98H23.32c-3.03,0-5.5-2.47-5.5-5.5V26.42c0-3.03,2.47-5.5,5.5-5.5h5.25v5h-5.25c-.28,0-.5.22-.5.5v52.06c0,.28.22.5.5.5h53.35c.28,0,.5-.22.5-.5V26.42c0-.28-.22-.5-.5-.5h-5.25v-5h5.25c3.03,0,5.5,2.47,5.5,5.5v52.06c0,3.03-2.47,5.5-5.5,5.5Z"/>
  <g>
    <g class="cls-3">
      <rect fill="currentColor" class="cls-1" x="50.82" y="40.99" width="16.64" height="5"/>
    </g>
    <g class="cls-3">
      <rect fill="currentColor" class="cls-1" x="32.54" y="53.4" width="34.92" height="5"/>
    </g>
    <g class="cls-3">
      <rect fill="currentColor" class="cls-1" x="32.54" y="65.8" width="18.28" height="5"/>
    </g>
  </g>
  <path fill="currentColor" class="cls-2" d="m66.72,32.82h-33.44v-16.78h33.44v16.78Zm-28.44-5h23.44v-6.78h-23.44v6.78Z"/>
</svg>