<?xml version="1.0" encoding="UTF-8"?><svg id="Layer_1" xmlns="http://www.w3.org/2000/svg" viewBox="0 0 100 100"><defs><style>.cls-1{fill:inherit;}.cls-2{opacity:.5;}</style></defs><path class="cls-1" fill="currentColor" d="M78.28,83.96H21.72c-2.48,0-4.5-2.02-4.5-4.5v-26.44c0-2.48,2.02-4.5,4.5-4.5h56.56c2.48,0,4.5,2.02,4.5,4.5v26.44c0,2.48-2.02,4.5-4.5,4.5Zm-56.06-5h55.56v-25.44H22.22v25.44Z"/><g class="cls-2"><path class="cls-1" fill="currentColor" d="M77.54,42.71h-5v-5.43H27.46v5.43h-5v-5.93c0-2.48,2.02-4.5,4.5-4.5h46.09c2.48,0,4.5,2.02,4.5,4.5v5.93Z"/><path class="cls-1" fill="currentColor" d="M72.61,26.47h-5v-5.43H32.39v5.43h-5v-5.93c0-2.48,2.02-4.5,4.5-4.5h36.23c2.48,0,4.5,2.02,4.5,4.5v5.93Z"/></g><rect class="cls-1" fill="currentColor" x="40.76" y="63.74" width="18.48" height="5"/></svg>