<?xml version="1.0" encoding="UTF-8"?><svg id="Layer_1" xmlns="http://www.w3.org/2000/svg" viewBox="0 0 100 100"><defs><style>.cls-1,.cls-2{fill:#fff;}.cls-3,.cls-2{opacity:.5;}</style></defs><rect fill="currentColor" class="cls-2" x="26.86" y="78.96" width="9.05" height="5"/><rect fill="currentColor" class="cls-2" x="45.48" y="78.96" width="9.05" height="5"/><rect fill="currentColor" class="cls-2" x="64.09" y="78.96" width="9.05" height="5"/><path fill="currentColor" class="cls-1" d="M50,72.23c-1.63,0-3.08-.84-3.9-2.25l-5.51-9.55H21.81c-2.48,0-4.5-2.02-4.5-4.5V20.62c0-2.48,2.02-4.5,4.5-4.5h56.38c2.48,0,4.5,2.02,4.5,4.5V55.93c0,2.48-2.02,4.5-4.5,4.5h-18.78l-5.51,9.55c-.81,1.41-2.27,2.25-3.9,2.25Zm-27.69-16.8h21.17l6.52,11.3,6.52-11.3h21.17V21.12H22.31V55.43Z"/><g class="cls-3"><rect fill="currentColor" class="cls-1" x="32.94" y="29.19" width="34.12" height="5"/><rect fill="currentColor" class="cls-1" x="51.66" y="41.67" width="7.12" height="5"/><rect fill="currentColor" class="cls-1" x="32.94" y="41.67" width="12.17" height="5"/></g></svg>