<svg id="Guides" xmlns="http://www.w3.org/2000/svg" viewBox="0 0 64 64"><defs><clipPath id="clip-path"><path class="cls-1" d="M.01 0H64v63.99H.01z"/></clipPath><style>.cls-1{fill:none}.cls-12{fill:#d0d0d0}.cls-14{fill:#d9d9d9}.cls-16{fill:#d8d8d8}.cls-17{fill:#e2e2e2}.cls-19{fill:#dedede}.cls-24{fill:#00b8e3}.cls-25{fill:#33c6e9}.cls-26{fill:#008aaa}</style></defs><g style="clip-path:url(#clip-path)"><path d="M54.81 19a.47.47 0 0 1-.41-.24L47.18 6.24a.49.49 0 0 0-.42-.24H17.3a.47.47 0 0 0-.41.24l-7.5 13-7.24 12.52a.48.48 0 0 0 0 .48l7.23 12.51 7.5 13a.47.47 0 0 0 .41.24h29.47a.49.49 0 0 0 .42-.24l7.22-12.52a.47.47 0 0 1 .42-.23h9a.54.54 0 0 0 .54-.54V19.54a.54.54 0 0 0-.55-.54h-9Z" style="fill:#4d4d4d"/><path class="cls-1" d="M63.81 19H9.8a.49.49 0 0 0-.41.23l-.27.46-3.3 5.73-3.66 6.34a.48.48 0 0 0 0 .48l.79 1.38 6.43 11.13a.48.48 0 0 0 .42.25h54a.53.53 0 0 0 .53-.53V19.54a.54.54 0 0 0-.52-.54Z"/><path d="m11 30.68-8.05 2.93-.79-1.37a.48.48 0 0 1 0-.48l3.65-6.33Z" style="fill:#e1e1e1"/><path style="fill:#c8c8c8" d="m59.03 33.02 5.32-.76v6.17l-5.32-5.41z"/><path d="m59 33 5.32 5.41v6a.53.53 0 0 1-.53.53h-6.16Z" style="fill:#c2c2c2"/><path style="fill:#c7c7c7" d="m59.03 33.02-1.4 11.97h-7.44l-2.26-5.43 11.1-6.54z"/><path style="fill:#cecece" d="m59.03 33.02 5.32-6.47v5.71l-5.32.76z"/><path d="M64.35 19.54v7L59 33l-4-14h8.79a.54.54 0 0 1 .56.54Z" style="fill:#d3d3d3"/><path style="fill:#c6c6c6" d="M50.19 44.99h-3.93l-1.02-1.46 2.69-3.97 2.26 5.43z"/><path style="fill:#d5d5d5" d="M59.03 33.02 44.3 26.8l7.75-7.8h2.97l4.01 14.02z"/><path class="cls-12" d="m44.31 26.8 3.62 12.76L59 33Z"/><path style="fill:#bfbfbf" d="M46.26 44.99h-1.07l.05-1.46 1.02 1.46z"/><path class="cls-14" d="m52.05 19-7.75 7.8-1.39-6.98L45.9 19h6.15z"/><path d="m44.31 26.8-17.87 4.12 18.8 12.61Z" style="fill:#d4d4d4"/><path class="cls-12" d="m44.31 26.8.94 16.74 2.69-4Z"/><path class="cls-14" d="m42.91 19.82-16.47 11.1 17.87-4.12Z"/><path class="cls-16" d="m26.44 30.92-7.75 14.07h-4.41l-3.26-14.31 15.42.24z"/><path class="cls-17" d="M18.5 19 11 30.68l-1.91-11 .27-.46A.49.49 0 0 1 9.8 19h8.7Z"/><path class="cls-16" d="M14.28 45H9.8a.48.48 0 0 1-.42-.24L2.95 33.61 11 30.68Z"/><path style="fill:#e4e4e4" d="m11.02 30.68-5.21-5.25 3.3-5.73 1.91 10.98z"/><path class="cls-19" d="M34.6 19H21.55l4.89 11.92 16.47-11.1-4.97-.82H34.6zM19.52 19H18.5l-7.48 11.68 15.42.24L21.55 19h-2.03z"/><path style="fill:#c5c5c5" d="M41.66 44.99H45.19l.05-1.46-3.58 1.46z"/><path class="cls-12" d="m45.24 43.53-18.8-12.61 3.39 14.07H41.66l3.58-1.46z"/><path style="fill:#d1d1d1" d="M18.69 44.99h11.14l-3.39-14.07-7.75 14.07z"/><path style="fill:#ddd" d="m42.96 19-.05.82L45.9 19H42.96z"/><path style="fill:#e3e3e3" d="m37.94 19 4.97.82-.46-.82h-4.51z"/><path class="cls-17" d="m42.45 19 .46.82.05-.82h-.51z"/><path class="cls-24" d="M29.4 19.22 22.13 31.8a.42.42 0 0 0-.05.21H17l10-17.27a.39.39 0 0 1 .15.14l2.26 3.93a.44.44 0 0 1-.01.41Z"/><path class="cls-25" d="m29.39 45.23-2.26 3.91a.44.44 0 0 1-.15.14L17 32h5.07a.39.39 0 0 0 0 .2l7.32 12.6a.43.43 0 0 1 0 .43Z"/><path class="cls-26" d="M27 14.74 17 32l-2.5 4.33-2.39-4.14a.39.39 0 0 1 0-.2.42.42 0 0 1 .05-.21l2.42-4.19 7.31-12.69a.42.42 0 0 1 .37-.22h4.51a.45.45 0 0 1 .23.06Z"/><path class="cls-24" d="M27 49.28a.45.45 0 0 1-.21.06h-4.53a.42.42 0 0 1-.37-.22L15.17 37.5l-.66-1.15L17 32Z"/><path class="cls-26" d="M47 32 37 49.27a.47.47 0 0 1-.15-.14l-2.26-3.92a.44.44 0 0 1 0-.4l7.26-12.58A.42.42 0 0 0 42 32h5Z"/><path class="cls-24" d="M52 32a.42.42 0 0 1-.06.22l-9.8 16.92a.43.43 0 0 1-.36.2h-4.5a.46.46 0 0 1-.22-.06L47 32l2.5-4.33 2.37 4.11A.42.42 0 0 1 52 32ZM47 32h-5a.42.42 0 0 0-.06-.21l-7.3-12.56a.43.43 0 0 1 0-.43l2.26-3.91a.47.47 0 0 1 .15-.14Z"/><path class="cls-25" d="M49.53 27.68 47 32 37 14.73a.46.46 0 0 1 .22-.06h4.5a.43.43 0 0 1 .36.2Z"/></g></svg>