<svg width="118.601" height="121.5" xmlns="http://www.w3.org/2000/svg"><path style="fill:#196485;fill-opacity:1;fill-rule:evenodd" d="M73.566 5.105c-.476.22.39.634.588.798 4.44 2.632 8.928 5.238 12.938 8.514 12.36 9.79 20.263 25.05 20.901 40.826.637 14.049-4.663 28.146-14.03 38.581-11.278 12.662-27.961 20.222-44.881 20.684-6.276.204-12.537-.59-18.675-1.844-1.027-.198-2.072-.384-3.122-.305 1.795 1.69 4.154 2.58 6.38 3.55 3.737 1.47 7.608 2.615 11.564 3.325.477.084 1.31.231 1.928.317 1.264.191 2.612.339 3.767.436 12.67 1.102 25.674-1.93 36.49-8.64 12.417-7.667 21.927-19.996 25.926-34.056 2.27-7.901 2.812-16.282 1.668-24.42-.08-.492-.196-1.341-.316-1.967-2.165-12.52-8.578-24.237-17.911-32.852a59.047 59.047 0 0 0-4.969-4.132c-.426-.306-1.132-.824-1.678-1.194-4.776-3.297-10.042-5.952-15.642-7.517-.303-.066-.614-.123-.926-.104Zm-22.382 7.397c-6.927.346-13.704 2.817-19.311 6.883-.28.217-.963.713-1.38 1.06-6.563 5.195-11.06 12.875-12.449 21.123-1.383 7.798-.089 16.063 3.753 23 .163.281.52.92.778 1.327 2.516 4.07 5.907 7.673 10.035 10.125.557.292.26-.381.064-.58-1.903-2.231-3.961-4.345-5.583-6.803-4.06-5.942-6.216-13.204-5.793-20.408.461-9.28 5.186-18.112 12.268-24.05 5.344-4.567 12.026-7.462 18.94-8.6 3.794-.608 7.666-.198 11.467-.661.302-.303-.546-.583-.786-.729-3.542-1.394-7.413-1.682-11.187-1.696l-.816.009zm4.476 26.371c-2.993.091-5.946 2.52-6.006 5.63-.11 2.241 1.108 4.31 2.664 5.835 1.04 1.295.584 3.01.333 4.486-1.068 5.55-2.64 11-3.504 16.588-.088.656.038 1.553.851 1.639 1.554.345 3.168.161 4.748.241 2.222-.03 4.468.078 6.668-.269.797-.254.908-1.159.753-1.865-.347-3.01-1.22-5.926-1.821-8.89-.72-3.22-1.588-6.426-1.971-9.707-.08-1.281.654-2.411 1.575-3.23 1.913-2.19 2.239-5.672.493-8.055-1.076-1.515-2.903-2.52-4.783-2.403z"/><path d="M53.877 28.531c-6.974 1.216-14.27 5.383-16.81 12.291 3.81-2.54 7.357-6.46 12.113-7.772C60.318 29.077 73.51 36.377 76.7 47.636c1.585 4.2 1.331 8.75 1.952 13.101 2.626-2.075 2.532-7.045 2.34-10.485-.838-13.217-14.01-23.86-27.114-21.72Zm-46.312.336C3.743 33.434 1.976 39.428.797 45.186-2.63 62.913 4.679 82.252 19.296 92.95c16.59 12.713 41.642 12.613 57.982-.504 8.402-6.72 15.1-16.239 16.989-26.954-.356-3.762-2.846 3.391-3.69 4.351-6.938 13.516-20.544 23.9-35.921 25.076-16.992 1.614-33.92-8.175-42.085-22.964-6.784-11.51-8.048-25.566-5.094-38.447-.145-.922 1.926-5.284.088-4.64Z" fill="#faa667" style="fill-rule:evenodd"/></svg>