<svg viewBox="0 0 20 32" xmlns="http://www.w3.org/2000/svg"><path d="M7.218 28.027h5.476v1.12H7.218zm8.658 3.653H3.787a3.27 3.27 0 0 1-3.271-3.252V3.574A3.271 3.271 0 0 1 3.787.312h12.089a3.271 3.271 0 0 1 3.271 3.262v24.845a3.271 3.271 0 0 1-3.271 3.262zM3.787 1.422a2.16 2.16 0 0 0-2.16 2.151v22.045h16.409V3.574a2.151 2.151 0 0 0-2.151-2.151h-.009zm-2.16 26.996a2.16 2.16 0 0 0 2.16 2.151h12.089a2.16 2.16 0 0 0 2.16-2.151v-1.689H1.627zM12.382 8.951a8.422 8.422 0 0 0-2.408-.343 8.61 8.61 0 0 0-1.592.147l.053-.008a.32.32 0 0 1-.373-.246v-.002c-.009-.089 0-.169.053-.231a.32.32 0 0 1 .202-.133h.002a8.966 8.966 0 0 1 1.644-.147c.922 0 1.813.135 2.653.386l-.065-.017a.316.316 0 1 1-.18.604l.002.001zm1.805 2.445h-.001a.32.32 0 0 1-.178-.054l.001.001a7.04 7.04 0 0 0-4.043-1.263 7.077 7.077 0 0 0-3.747 1.067l.03-.017a.32.32 0 0 1-.444-.097l-.001-.001a.313.313 0 0 1 .105-.444l.002-.001a7.657 7.657 0 0 1 4.043-1.141 7.7 7.7 0 0 1 4.435 1.397l-.025-.016c.142.089.178.293.089.436a.32.32 0 0 1-.26.133h-.007zM5.236 13.92a.32.32 0 0 1-.257-.508l-.001.001a6.222 6.222 0 0 1 9.84-.181l.009.012c.107.142.089.338-.053.444a.318.318 0 0 1-.444-.053v-.001a5.595 5.595 0 0 0-4.364-2.09 5.593 5.593 0 0 0-4.471 2.227l-.01.014a.319.319 0 0 1-.248.133h-.001zm.32 3.218h-.009a.31.31 0 0 1-.311-.311v-.018a4.74 4.74 0 0 1 4.728-4.441 4.74 4.74 0 0 1 4.534 3.358l.009.034a.32.32 0 0 1-.603.198l-.001-.002v-.018a4.106 4.106 0 0 0-3.936-2.956 4.099 4.099 0 0 0-4.091 3.852l-.001.011a.311.311 0 0 1-.311.293h-.01zm1.448 2.249a.32.32 0 0 1-.311-.393v.002c.082-.236.129-.507.129-.79 0-.116-.008-.231-.023-.343l.001.013a3.262 3.262 0 1 1 6.325-1.576l.004.021c.142.587.213 1.182.204 1.778 0 .178-.142.32-.32.32a.32.32 0 0 1-.311-.311c0-.551-.062-1.102-.178-1.636a2.631 2.631 0 1 0-5.107 1.271l-.004-.018c.08.329.044.809-.107 1.422a.32.32 0 0 1-.302.24zm1.307.764-.089-.009a.312.312 0 0 1-.204-.393l-.001.002a4.584 4.584 0 0 0 .21-2.248l.003.026a1.796 1.796 0 1 1 3.475-.864l.001.01c.213.836.222 1.804.027 2.88a.32.32 0 0 1-.64-.001c0-.038.007-.074.018-.107l-.001.002c.178-.987.169-1.867-.018-2.631a1.158 1.158 0 1 0-2.247.56l-.002-.008c.16.64.089 1.502-.222 2.56a.321.321 0 0 1-.305.222h-.007zm1.493.178a.32.32 0 0 1-.302-.393v.002a7.186 7.186 0 0 0 .267-1.843v-.006c0-.311-.036-.622-.107-.916l-.001-.026a.32.32 0 0 1 .614-.128l.001.002a4 4 0 0 1 .116 1.067 7.928 7.928 0 0 1-.298 2.056l.014-.056a.32.32 0 0 1-.302.24z" style="fill:teal"/></svg>