<?xml version="1.0" encoding="iso-8859-1"?>
<!-- Generator: Adobe Illustrator 19.0.0, SVG Export Plug-In . SVG Version: 6.00 Build 0)  -->
<svg version="1.1" id="Capa_1" xmlns="http://www.w3.org/2000/svg" xmlns:xlink="http://www.w3.org/1999/xlink" x="0px" y="0px"
	 viewBox="0 0 480 480" style="enable-background:new 0 0 480 480;" xml:space="preserve">
<g>
	<g>
		<path d="M304,128c-13.255,0-24,10.745-24,24v8h16v-8c0-4.418,3.582-8,8-8s8,3.582,8,8v8h16v-8C328,138.745,317.255,128,304,128z"
			/>
	</g>
</g>
<g>
	<g>
		<path d="M384,128c-13.255,0-24,10.745-24,24v8h16v-8c0-4.418,3.582-8,8-8s8,3.582,8,8v8h16v-8C408,138.745,397.255,128,384,128z"
			/>
	</g>
</g>
<g>
	<g>
		<path d="M360,184v8c0,8.837-7.163,16-16,16s-16-7.163-16-16v-8h-16v8c0,17.673,14.327,32,32,32c17.673,0,32-14.327,32-32v-8H360z"
			/>
	</g>
</g>
<g>
	<g>
		<path d="M424,256h-40v-8.8c28.951-13.13,49.444-39.837,54.632-71.2H448c13.255,0,24-10.745,24-24s-10.745-24-24-24h-8V0H320
			c-39.746,0.044-71.956,32.254-72,72v56h-8c-13.255,0-24,10.745-24,24s10.745,24,24,24h9.368
			c5.188,31.363,25.681,58.07,54.632,71.2v8.8h-40c-30.913,0.035-55.965,25.087-56,56v8h-48v-8c0-13.255-10.745-24-24-24h-32
			c-13.255,0-24,10.745-24,24v8H8c-4.418,0-8,3.582-8,8v144c0,4.418,3.582,8,8,8h464c4.418,0,8-3.582,8-8V312
			C479.965,281.087,454.913,256.035,424,256z M440,144h8c4.418,0,8,3.582,8,8s-3.582,8-8,8h-8V144z M248,160h-8
			c-4.418,0-8-3.582-8-8s3.582-8,8-8h8V160z M408,272l-32.864,43.824l-1.48-1.48L355.312,296l24-24H408z M356.688,320l-8,8h-9.376
			l-8-8L344,307.312L356.688,320z M331.312,272h25.376L344,284.688L331.312,272z M264,72c0.035-30.913,25.087-55.965,56-56h104v48
			h-72v8c0,13.255-10.745,24-24,24h-64V72z M264,160v-48h64c19.002-0.021,35.375-13.387,39.2-32H424v80
			c0.109,32.976-20.144,62.599-50.912,74.464c-3.067,1.199-5.087,4.155-5.088,7.448V256h-48v-14.088
			c-0.001-3.293-2.021-6.249-5.088-7.448C284.144,222.599,263.891,192.976,264,160z M308.688,272l24,24l-18.344,18.344l-1.48,1.48
			L280,272H308.688z M96,312c0-4.418,3.582-8,8-8h32c4.418,0,8,3.582,8,8v8H96V312z M224,464H16v-56h80v24c0,4.418,3.582,8,8,8h32
			c4.418,0,8-3.582,8-8v-24h80V464z M112,424v-16h16v16H112z M224,392H16v-56h208V392z M240,464V328c0-4.418-3.582-8-8-8h-8v-8
			c0.067-20.587,15.779-37.747,36.28-39.624L305.6,332.8c1.387,1.863,3.516,3.03,5.832,3.2H312c2.122,0,4.156-0.844,5.656-2.344
			l2.344-2.344l7.432,7.432l-15.32,91.936c-0.362,2.158,0.176,4.369,1.488,6.12L334,464H240z M328.456,429.936L342.776,344h2.448
			l14.32,85.936L344,450.664L328.456,429.936z M464,464H354l20.4-27.2c1.312-1.751,1.85-3.962,1.488-6.12l-15.32-91.936l7.432-7.432
			l2.344,2.344c1.5,1.5,3.534,2.344,5.656,2.344h0.568c2.316-0.17,4.445-1.337,5.832-3.2l45.32-60.424
			c20.501,1.877,36.213,19.037,36.28,39.624V464z"/>
	</g>
</g>
<g>
</g>
<g>
</g>
<g>
</g>
<g>
</g>
<g>
</g>
<g>
</g>
<g>
</g>
<g>
</g>
<g>
</g>
<g>
</g>
<g>
</g>
<g>
</g>
<g>
</g>
<g>
</g>
<g>
</g>
</svg>
