<svg width="16" height="16" viewBox="0 0 16 16" fill="none" xmlns="http://www.w3.org/2000/svg">
  <path
    d="M8 4.4109C7.28996 4.4109 6.59586 4.62139 6.00549 5.01577C5.41511 5.41015 4.95496 5.97069 4.68324 6.62651C4.41152 7.28233 4.34043 8.00398 4.47895 8.7002C4.61747 9.39642 4.95939 10.0359 5.46146 10.5379C5.96354 11.0398 6.60322 11.3817 7.29962 11.5201C7.99602 11.6586 8.71785 11.5876 9.37385 11.3159C10.0298 11.0442 10.5905 10.5842 10.985 9.994C11.3795 9.40377 11.59 8.70986 11.59 8C11.5889 7.04845 11.2103 6.13618 10.5373 5.46333C9.8643 4.79048 8.9518 4.41199 8 4.4109ZM8 9.93259C7.61767 9.93259 7.24393 9.81925 6.92603 9.60689C6.60813 9.39454 6.36036 9.09271 6.21405 8.73957C6.06774 8.38644 6.02946 7.99786 6.10405 7.62297C6.17864 7.24808 6.36275 6.90373 6.6331 6.63345C6.90344 6.36317 7.24789 6.17911 7.62287 6.10454C7.99786 6.02997 8.38654 6.06824 8.73976 6.21452C9.09299 6.36079 9.3949 6.60849 9.60731 6.92631C9.81972 7.24412 9.93309 7.61777 9.93309 8C9.93309 8.51256 9.72943 9.00412 9.3669 9.36655C9.00438 9.72898 8.51269 9.93259 8 9.93259ZM14.3516 8.05453V7.94547L15.3181 6.73691C15.3993 6.63565 15.4555 6.51674 15.4822 6.38978C15.509 6.26282 15.5055 6.13135 15.4721 6.00598C15.2977 5.34828 15.037 4.71654 14.6968 4.12722C14.6313 4.01484 14.5402 3.91947 14.4309 3.84884C14.3216 3.77821 14.1972 3.73431 14.0678 3.72068L12.5297 3.54813L12.453 3.47152L12.2804 1.93304C12.2667 1.80379 12.2227 1.67958 12.1521 1.57047C12.0814 1.46136 11.9861 1.37039 11.8738 1.30494C11.2843 0.963762 10.6521 0.702196 9.99385 0.527073C9.86833 0.494176 9.73684 0.491216 9.60996 0.51843C9.48309 0.545644 9.36439 0.602272 9.26341 0.683751L8.05454 1.65005H7.94546L6.73658 0.683751C6.63529 0.602638 6.51636 0.54645 6.38936 0.519715C6.26237 0.49298 6.13087 0.496446 6.00546 0.529834C5.34742 0.705293 4.71551 0.967088 4.12622 1.30839C4.01424 1.37357 3.91913 1.4641 3.8485 1.57271C3.77788 1.68131 3.73372 1.80496 3.71958 1.93373L3.54698 3.47152L3.47035 3.54813L1.93146 3.72068C1.80218 3.73441 1.67795 3.77837 1.56881 3.84899C1.45966 3.91961 1.36868 4.01493 1.30321 4.12722C0.9629 4.71673 0.702196 5.34871 0.5279 6.00667C0.494618 6.13194 0.49121 6.26328 0.517949 6.39011C0.544689 6.51694 0.60083 6.63572 0.681857 6.73691L1.6484 7.94547V8.05453L0.681857 9.26309C0.600724 9.36435 0.544521 9.48326 0.517779 9.61022C0.491037 9.73718 0.494504 9.86865 0.5279 9.99402C0.703623 10.6519 0.965718 11.2837 1.30735 11.8728C1.37248 11.9846 1.46293 12.0797 1.57143 12.1503C1.67994 12.2209 1.80348 12.2651 1.93216 12.2793L3.47035 12.4505L3.54698 12.5271L3.71958 14.067C3.73331 14.1962 3.77727 14.3204 3.84792 14.4295C3.91856 14.5386 4.0139 14.6296 4.12622 14.6951C4.71574 15.0362 5.34789 15.2978 6.00615 15.4729C6.13167 15.5058 6.26316 15.5088 6.39004 15.4816C6.51691 15.4544 6.63561 15.3977 6.73658 15.3162L7.94546 14.35H8.05454L9.26341 15.3162C9.36471 15.3974 9.48364 15.4536 9.61064 15.4803C9.73763 15.507 9.86913 15.5036 9.99454 15.4702C10.6524 15.2958 11.2843 15.0352 11.8738 14.6951C11.986 14.63 12.0814 14.5396 12.1523 14.431C12.2231 14.3223 12.2675 14.1986 12.2818 14.0697L12.453 12.5319L12.5297 12.4553L14.0685 12.2793C14.1975 12.265 14.3212 12.2207 14.4299 12.1498C14.5385 12.079 14.629 11.9836 14.694 11.8714C15.0353 11.282 15.2969 10.65 15.4721 9.99195C15.5052 9.86688 15.5084 9.73581 15.4817 9.60924C15.455 9.48267 15.399 9.36412 15.3181 9.26309L14.3516 8.05453ZM12.6864 7.71701C12.6974 7.90551 12.6974 8.09449 12.6864 8.28299C12.674 8.4879 12.7382 8.69008 12.8666 8.85034L13.753 9.95813C13.6693 10.2058 13.5695 10.4476 13.4541 10.6822L12.0436 10.8388C11.8394 10.8622 11.6512 10.9606 11.5155 11.1149C11.3901 11.2562 11.2563 11.3899 11.115 11.5153C10.9607 11.6509 10.8622 11.8391 10.8389 12.0433L10.6829 13.4527C10.4483 13.5685 10.2064 13.6688 9.95864 13.7529L8.85056 12.866C8.70351 12.7487 8.5209 12.6849 8.33277 12.6852C8.3162 12.6852 8.29963 12.6852 8.28306 12.6852C8.09452 12.6962 7.90548 12.6962 7.71694 12.6852C7.51212 12.673 7.31003 12.7369 7.14944 12.8646L6.04136 13.7515C5.79367 13.6679 5.55174 13.568 5.31714 13.4527L5.16042 12.0426C5.13707 11.8384 5.03865 11.6502 4.88427 11.5146C4.74297 11.3892 4.60926 11.2555 4.48384 11.1142C4.34814 10.9599 4.1599 10.8615 3.95569 10.8382L2.54591 10.6822C2.43004 10.4477 2.32972 10.2058 2.24559 9.95813L3.13205 8.85034C3.26037 8.69008 3.32458 8.4879 3.31225 8.28299C3.3012 8.09449 3.3012 7.90551 3.31225 7.71701C3.32458 7.51211 3.26037 7.30992 3.13205 7.14966L2.24697 6.04187C2.33065 5.79424 2.43052 5.55238 2.54591 5.31784L3.95638 5.16116C4.16059 5.13782 4.34883 5.03941 4.48453 4.88507C4.60995 4.74381 4.74366 4.61013 4.88496 4.48475C5.03934 4.34909 5.13776 4.1609 5.16111 3.95674L5.31714 2.54732C5.55171 2.43149 5.79363 2.33119 6.04136 2.24708L7.14944 3.134C7.31003 3.26169 7.51212 3.32559 7.71694 3.31346C7.90548 3.30242 8.09452 3.30242 8.28306 3.31346C8.48793 3.32599 8.69016 3.26204 8.85056 3.134L9.95864 2.24708C10.2064 2.33119 10.4483 2.43149 10.6829 2.54732L10.8396 3.95743C10.8629 4.16159 10.9614 4.34978 11.1157 4.48544C11.257 4.61082 11.3907 4.7445 11.5162 4.88576C11.6519 5.0401 11.8401 5.1385 12.0443 5.16185L13.4541 5.31784C13.57 5.55234 13.6703 5.79421 13.7544 6.04187L12.8679 7.14966C12.7391 7.30972 12.6744 7.51193 12.6864 7.71701Z"
    fill="currentColor"
  />
</svg>
