<svg width="18" height="15" viewBox="0 0 18 15" fill="none" xmlns="http://www.w3.org/2000/svg">
  <path
    d="M16.8628 11.6042L10.738 1.10863C10.5606 0.809261 10.3068 0.560939 10.002 0.38837C9.69714 0.215801 9.35181 0.125 9.00035 0.125C8.64889 0.125 8.30356 0.215801 7.99871 0.38837C7.69386 0.560939 7.44011 0.809261 7.2627 1.10863L1.13786 11.6042C0.965723 11.8948 0.875 12.2252 0.875 12.5617C0.875 12.8983 0.965723 13.2287 1.13786 13.5193C1.3133 13.8201 1.5667 14.0695 1.87206 14.2418C2.17742 14.4142 2.52375 14.5032 2.87551 14.4999H15.1252C15.4767 14.503 15.8228 14.4138 16.1278 14.2415C16.4329 14.0692 16.6861 13.8199 16.8614 13.5193C17.0338 13.2289 17.1248 12.8985 17.125 12.5619C17.1252 12.2254 17.0348 11.8949 16.8628 11.6042ZM15.406 12.6893C15.3776 12.7371 15.3365 12.7766 15.2872 12.8033C15.2379 12.8301 15.1821 12.8432 15.1259 12.8413H2.87551C2.81926 12.8432 2.76354 12.8301 2.71423 12.8033C2.66491 12.7766 2.62384 12.7371 2.59536 12.6893C2.5712 12.6505 2.5584 12.6059 2.5584 12.5604C2.5584 12.5149 2.5712 12.4702 2.59536 12.4315L8.7202 1.93587C8.75053 1.88981 8.79204 1.85195 8.84097 1.82574C8.88989 1.79954 8.94468 1.78581 9.00035 1.78581C9.05602 1.78581 9.11081 1.79954 9.15973 1.82574C9.20866 1.85195 9.25017 1.88981 9.2805 1.93587L15.4046 12.4315C15.429 12.4701 15.442 12.5147 15.4423 12.5602C15.4425 12.6057 15.43 12.6504 15.406 12.6893ZM8.15989 8.14187V5.93038C8.15989 5.71043 8.24844 5.49949 8.40606 5.34397C8.56367 5.18844 8.77745 5.10107 9.00035 5.10107C9.22325 5.10107 9.43703 5.18844 9.59464 5.34397C9.75226 5.49949 9.84081 5.71043 9.84081 5.93038V8.14187C9.84081 8.36182 9.75226 8.57275 9.59464 8.72828C9.43703 8.88381 9.22325 8.97118 9.00035 8.97118C8.77745 8.97118 8.56367 8.88381 8.40606 8.72828C8.24844 8.57275 8.15989 8.36182 8.15989 8.14187ZM10.121 10.9062C10.121 11.1249 10.0552 11.3387 9.9321 11.5206C9.80897 11.7024 9.63395 11.8441 9.42919 11.9278C9.22443 12.0115 8.99911 12.0334 8.78173 11.9907C8.56435 11.9481 8.36468 11.8428 8.20796 11.6881C8.05124 11.5335 7.94451 11.3364 7.90127 11.122C7.85803 10.9075 7.88022 10.6851 7.96504 10.4831C8.04986 10.281 8.19349 10.1083 8.37777 9.98684C8.56206 9.86534 8.77871 9.80049 9.00035 9.80049C9.29755 9.80049 9.58259 9.91699 9.79274 10.1244C10.0029 10.3317 10.121 10.613 10.121 10.9062Z"
    fill="currentColor"
  />
</svg>
