<svg width="16" height="11" viewBox="0 0 16 11" fill="none" xmlns="http://www.w3.org/2000/svg">
  <path
    d="M0.5 1.21371C0.5 0.991269 0.587787 0.77794 0.74405 0.620652C0.900313 0.463364 1.11225 0.375 1.33324 0.375H13.5541C13.7751 0.375 13.987 0.463364 14.1433 0.620652C14.2995 0.77794 14.3873 0.991269 14.3873 1.21371C14.3873 1.43615 14.2995 1.64948 14.1433 1.80676C13.987 1.96405 13.7751 2.05242 13.5541 2.05242H1.33324C1.11225 2.05242 0.900313 1.96405 0.74405 1.80676C0.587787 1.64948 0.5 1.43615 0.5 1.21371ZM1.33324 6.52553H5.77718C5.99817 6.52553 6.21011 6.43716 6.36637 6.27988C6.52263 6.12259 6.61042 5.90926 6.61042 5.68682C6.61042 5.46438 6.52263 5.25105 6.36637 5.09376C6.21011 4.93647 5.99817 4.84811 5.77718 4.84811H1.33324C1.11225 4.84811 0.900313 4.93647 0.74405 5.09376C0.587787 5.25105 0.5 5.46438 0.5 5.68682C0.5 5.90926 0.587787 6.12259 0.74405 6.27988C0.900313 6.43716 1.11225 6.52553 1.33324 6.52553ZM6.88816 9.32122H1.33324C1.11225 9.32122 0.900313 9.40959 0.74405 9.56687C0.587787 9.72416 0.5 9.93749 0.5 10.1599C0.5 10.3824 0.587787 10.5957 0.74405 10.753C0.900313 10.9103 1.11225 10.9986 1.33324 10.9986H6.88816C7.10915 10.9986 7.32109 10.9103 7.47735 10.753C7.63362 10.5957 7.7214 10.3824 7.7214 10.1599C7.7214 9.93749 7.63362 9.72416 7.47735 9.56687C7.32109 9.40959 7.10915 9.32122 6.88816 9.32122ZM15.2546 10.7533C15.1772 10.8315 15.0852 10.8935 14.9839 10.9359C14.8826 10.9782 14.774 11 14.6644 11C14.5547 11 14.4461 10.9782 14.3448 10.9359C14.2436 10.8935 14.1516 10.8315 14.0742 10.7533L12.8187 9.48966C12.1748 9.8511 11.4227 9.96595 10.7012 9.81304C9.97977 9.66012 9.33758 9.24974 8.89311 8.65761C8.44865 8.06548 8.23191 7.33155 8.28288 6.59119C8.33384 5.85083 8.64907 5.15399 9.17042 4.62922C9.69177 4.10445 10.3841 3.78716 11.1196 3.73586C11.8551 3.68456 12.5843 3.90272 13.1725 4.3501C13.7608 4.79747 14.1685 5.44389 14.3204 6.1701C14.4723 6.89631 14.3582 7.65332 13.9992 8.30149L15.2546 9.56445C15.3324 9.64238 15.3941 9.73501 15.4362 9.83702C15.4783 9.93903 15.5 10.0484 15.5 10.1589C15.5 10.2694 15.4783 10.3787 15.4362 10.4807C15.3941 10.5828 15.3324 10.6754 15.2546 10.7533ZM11.3321 8.20294C11.6068 8.20294 11.8753 8.12096 12.1036 7.96736C12.332 7.81377 12.51 7.59545 12.6151 7.34003C12.7202 7.08461 12.7477 6.80355 12.6942 6.53239C12.6406 6.26123 12.5083 6.01216 12.3141 5.81667C12.1199 5.62118 11.8724 5.48805 11.603 5.43411C11.3336 5.38017 11.0544 5.40785 10.8007 5.51365C10.5469 5.61945 10.33 5.79862 10.1774 6.02849C10.0248 6.25837 9.94337 6.52863 9.94337 6.8051C9.94337 6.98867 9.97929 7.17044 10.0491 7.34003C10.1189 7.50963 10.2212 7.66372 10.3501 7.79352C10.4791 7.92333 10.6322 8.02629 10.8007 8.09654C10.9691 8.16679 11.1497 8.20294 11.3321 8.20294Z"
    fill="currentColor"
  />
</svg>
