<svg width="22" height="12" viewBox="0 0 22 12" fill="none" xmlns="http://www.w3.org/2000/svg">
  <path
    d="M17.75 6C17.75 6.19891 17.671 6.38968 17.5303 6.53033C17.3897 6.67098 17.1989 6.75 17 6.75H5C4.80109 6.75 4.61032 6.67098 4.46967 6.53033C4.32902 6.38968 4.25 6.19891 4.25 6C4.25 5.80109 4.32902 5.61032 4.46967 5.46967C4.61032 5.32902 4.80109 5.25 5 5.25H17C17.1989 5.25 17.3897 5.32902 17.5303 5.46967C17.671 5.61032 17.75 5.80109 17.75 6ZM20.75 0.75H1.25C1.05109 0.75 0.860322 0.829018 0.71967 0.96967C0.579018 1.11032 0.5 1.30109 0.5 1.5C0.5 1.69891 0.579018 1.88968 0.71967 2.03033C0.860322 2.17098 1.05109 2.25 1.25 2.25H20.75C20.9489 2.25 21.1397 2.17098 21.2803 2.03033C21.421 1.88968 21.5 1.69891 21.5 1.5C21.5 1.30109 21.421 1.11032 21.2803 0.96967C21.1397 0.829018 20.9489 0.75 20.75 0.75ZM13.25 9.75H8.75C8.55109 9.75 8.36032 9.82902 8.21967 9.96967C8.07902 10.1103 8 10.3011 8 10.5C8 10.6989 8.07902 10.8897 8.21967 11.0303C8.36032 11.171 8.55109 11.25 8.75 11.25H13.25C13.4489 11.25 13.6397 11.171 13.7803 11.0303C13.921 10.8897 14 10.6989 14 10.5C14 10.3011 13.921 10.1103 13.7803 9.96967C13.6397 9.82902 13.4489 9.75 13.25 9.75Z"
    fill="currentColor"
  />
</svg>
