<svg width="18" height="17" viewBox="0 0 18 17" fill="none" xmlns="http://www.w3.org/2000/svg">
  <path
    d="M17.3038 1.74297C17.1813 1.46613 16.9811 1.23082 16.7274 1.06564C16.4737 0.900453 16.1776 0.812512 15.8748 0.8125H2.12485C1.82219 0.812529 1.52605 0.900459 1.27242 1.06561C1.01879 1.23075 0.818576 1.46601 0.696115 1.74279C0.573654 2.01957 0.534214 2.32595 0.582586 2.62472C0.630958 2.92349 0.76506 3.20178 0.968599 3.42578L0.977974 3.43672L6.18735 8.99609V14.875C6.18731 15.1579 6.26406 15.4355 6.40942 15.6781C6.55478 15.9208 6.76329 16.1195 7.01272 16.2529C7.26214 16.3864 7.54311 16.4496 7.82566 16.4359C8.1082 16.4222 8.38172 16.332 8.61704 16.175L11.117 14.5086C11.3311 14.3658 11.5065 14.1723 11.6278 13.9454C11.7491 13.7185 11.8125 13.4651 11.8123 13.2078V8.99609L17.0209 3.43672L17.0303 3.42578C17.234 3.2019 17.3682 2.92369 17.4168 2.62495C17.4653 2.32622 17.4261 2.01981 17.3038 1.74297ZM10.36 7.80391C10.088 8.09322 9.93679 8.47554 9.93735 8.87266V13.0406L8.06235 14.2906V8.87266C8.06291 8.47554 7.91171 8.09322 7.63969 7.80391L2.84594 2.6875H15.1538L10.36 7.80391Z"
    fill="currentColor"
  />
</svg>
