<?xml version="1.0" encoding="iso-8859-1"?>
<!-- Generator: Adobe Illustrator 19.0.0, SVG Export Plug-In . SVG Version: 6.00 Build 0)  -->
<svg version="1.1" id="Capa_1" xmlns="http://www.w3.org/2000/svg" xmlns:xlink="http://www.w3.org/1999/xlink" x="0px" y="0px"
	 viewBox="0 0 485.656 485.656" style="enable-background:new 0 0 485.656 485.656;" xml:space="preserve">
<g>
	<g>
		<path d="M474.828,101.656h-120v-88c0-4.418-3.582-8-8-8h-208c-4.418,0-8,3.582-8,8v88h-120c-4.418,0-8,3.582-8,8v128
			c0,4.418,3.582,8,8,8h76.688l21.656,21.656c1.563,1.563,3.609,2.344,5.656,2.344s4.094-0.781,5.656-2.344l21.656-21.656h44.688
			c4.418,0,8-3.582,8-8v-88h20.688l21.656,21.656c1.563,1.563,3.609,2.344,5.656,2.344s4.094-0.781,5.656-2.344l21.656-21.656
			h20.555v88.816c0,2.141,0.855,4.191,2.379,5.691c1.527,1.504,3.691,2.426,5.723,2.309l60.762-0.773l21.613,21.613
			c1.563,1.563,3.609,2.344,5.656,2.344s4.094-0.781,5.656-2.344l21.656-21.656h60.688c4.418,0,8-3.582,8-8v-128
			C482.828,105.238,479.246,101.656,474.828,101.656z M178.828,229.656h-40c-2.121,0-4.156,0.844-5.656,2.344l-18.344,18.344
			L96.484,232c-1.5-1.5-3.535-2.344-5.656-2.344h-72v-112h160V229.656z M266.828,133.656c-2.121,0-4.156,0.844-5.656,2.344
			l-18.344,18.344L224.484,136c-1.5-1.5-3.535-2.344-5.656-2.344h-24v-24c0-4.418-3.582-8-8-8h-40v-80h192v112H266.828z
			 M466.828,229.656h-56c-2.121,0-4.156,0.844-5.656,2.344l-18.344,18.344L368.484,232c-1.523-1.523-3.563-2.219-5.758-2.344
			l-56.031,0.715v-80.715h40.133c4.418,0,8-3.582,8-8v-24h112V229.656z"/>
	</g>
</g>
<g>
	<g>
		<path d="M462.828,445.656h-12c0-13.234-10.766-24-24-24h-40c-4.41,0-8-3.59-8-8v-8c0-30.879-25.121-56-56-56h-48v-8.598
			c19.863-11.363,32-32.152,32-55.402c0-17.375-6.828-33.625-19.23-45.758c-12.398-12.133-28.621-18.535-46.199-18.227
			c-33.473,0.73-61.527,28.539-62.539,61.988c-0.719,23.727,11.691,45.719,31.969,57.391v8.605h-40c-30.879,0-56,25.121-56,56v8
			c0,4.41-3.59,8-8,8s-8-3.59-8-8v-124c0-11.027-8.973-20-20-20s-20,8.973-20,20v12c-13.234,0-24,10.766-24,24v104
			c0,30.879,25.121,56,56,56h32c15.652,0,29.828-6.457,40-16.844v16.844h16v-56c0-4.418-3.582-8-8-8s-8,3.582-8,8
			c0,22.055-17.945,40-40,40h-32c-22.055,0-40-17.945-40-40v-104c0-4.41,3.59-8,8-8h8c4.418,0,8-3.582,8-8v-20c0-2.207,1.793-4,4-4
			s4,1.793,4,4v124c0,13.234,10.766,24,24,24s24-10.766,24-24v-8c0-22.055,17.945-40,40-40h48c4.418,0,8-3.582,8-8v-21.441
			c0-3.094-1.785-5.91-4.582-7.234c-17.219-8.133-27.973-25.734-27.395-44.836c0.758-25.078,21.797-45.93,46.898-46.473
			c13.113-0.297,25.363,4.57,34.656,13.664c9.301,9.098,14.422,21.285,14.422,34.32c0,18.734-10.504,35.336-27.418,43.324
			c-2.797,1.324-4.582,4.141-4.582,7.234v21.441c0,4.418,3.582,8,8,8h56c22.055,0,40,17.945,40,40v8c0,13.234,10.766,24,24,24h40
			c4.41,0,8,3.59,8,8v8c0,4.418,3.582,8,8,8h20c2.207,0,4,1.793,4,4s-1.793,4-4,4h-92c-22.055,0-40-17.945-40-40
			c0-4.418-3.582-8-8-8s-8,3.582-8,8v56h16v-16.844c10.172,10.387,24.348,16.844,40,16.844h92c11.027,0,20-8.973,20-20
			S473.855,445.656,462.828,445.656z"/>
	</g>
</g>
<g>
	<g>
		<path d="M112.484,24l-24-24L77.172,11.313l10.344,10.344H50.828c-4.418,0-8,3.582-8,8v56h16v-48h28.688L77.172,48l11.313,11.313
			l24-24C115.609,32.188,115.609,27.125,112.484,24z"/>
	</g>
</g>
<g>
	<g>
		<path d="M453.172,48l-10.344,10.344V29.656c0-4.418-3.582-8-8-8h-64v16h56v20.688L416.484,48l-11.313,11.313l24,24
			c1.563,1.563,3.609,2.344,5.656,2.344s4.094-0.781,5.656-2.344l24-24L453.172,48z"/>
	</g>
</g>
<g>
	<g>
		<rect x="42.828" y="165.656" width="16" height="16"/>
	</g>
</g>
<g>
	<g>
		<rect x="74.828" y="165.656" width="16" height="16"/>
	</g>
</g>
<g>
	<g>
		<rect x="106.828" y="165.656" width="16" height="16"/>
	</g>
</g>
<g>
	<g>
		<rect x="138.828" y="165.656" width="16" height="16"/>
	</g>
</g>
<g>
	<g>
		<rect x="186.828" y="69.656" width="16" height="16"/>
	</g>
</g>
<g>
	<g>
		<rect x="218.828" y="69.656" width="16" height="16"/>
	</g>
</g>
<g>
	<g>
		<rect x="250.828" y="69.656" width="16" height="16"/>
	</g>
</g>
<g>
	<g>
		<rect x="282.828" y="69.656" width="16" height="16"/>
	</g>
</g>
<g>
	<g>
		<rect x="330.828" y="165.656" width="16" height="16"/>
	</g>
</g>
<g>
	<g>
		<rect x="362.828" y="165.656" width="16" height="16"/>
	</g>
</g>
<g>
	<g>
		<rect x="394.828" y="165.656" width="16" height="16"/>
	</g>
</g>
<g>
	<g>
		<rect x="426.828" y="165.656" width="16" height="16"/>
	</g>
</g>
<g>
</g>
<g>
</g>
<g>
</g>
<g>
</g>
<g>
</g>
<g>
</g>
<g>
</g>
<g>
</g>
<g>
</g>
<g>
</g>
<g>
</g>
<g>
</g>
<g>
</g>
<g>
</g>
<g>
</g>
</svg>
