<svg id="Group_956" data-name="Group 956" xmlns="http://www.w3.org/2000/svg" xmlns:xlink="http://www.w3.org/1999/xlink" width="37.152" height="33.672" viewBox="0 0 37.152 33.672">
  <g id="Group_955" data-name="Group 955">
    <path id="Path_308" data-name="Path 308" d="M18.576,33.671q-6.448,0-12.9,0A5.393,5.393,0,0,1,.863,25.31q6.459-11.2,12.928-22.386a5.377,5.377,0,0,1,9.572,0q6.471,11.189,12.927,22.386a5.391,5.391,0,0,1-4.819,8.357q-6.448,0-12.9,0m-.047-1.715h4.21c2.982,0,5.965.025,8.947-.006a3.645,3.645,0,0,0,3.269-5.486q-6.569-11.471-13.21-22.9a3.56,3.56,0,0,0-1.867-1.587A3.671,3.671,0,0,0,15.29,3.764Q8.822,14.952,2.368,26.148c-1.67,2.9.039,5.809,3.4,5.809H18.529" transform="translate(-0.001 0.001)" fill="#108f10"/>
    <path id="Path_309" data-name="Path 309" d="M44.721,55.9q-6.347,0-12.693,0c-1.74,0-2.35-1.084-1.473-2.6L43.144,31.49c.088-.152.174-.3.265-.454a1.478,1.478,0,0,1,2.715.018q2.824,4.86,5.625,9.735,3.632,6.292,7.264,12.584c.825,1.429.189,2.528-1.468,2.529q-6.412,0-12.825,0m.543-7.453c.235-2.462.478-4.88.693-7.3.122-1.374.254-2.751.277-4.128.016-.94-.547-1.4-1.464-1.4a1.332,1.332,0,0,0-1.488,1.389,5.611,5.611,0,0,0,.007.919q.3,3.372.619,6.743c.117,1.257.239,2.513.359,3.777ZM46.742,51.3a1.979,1.979,0,1,0-1.931,2,2.008,2.008,0,0,0,1.931-2" transform="translate(-26.187 -26.183)" fill="#108f10"/>
  </g>
</svg>
