<svg version="1.1" xmlns="http://www.w3.org/2000/svg" xmlns:xlink="http://www.w3.org/1999/xlink" style="" xml:space="preserve" width="605" height="598" viewBox="0 0 604.83 597.52">
<g id="svg_campaigns">
	<path class="st0" d="M442.77086172103884,56.02194404602051 c0,34.5 25.9,59.6 59.3,57.3 c7.6,-0.5 15.3,-2.3 22.9,-1.9 c25.1,1.2 46.5,21.9 49.6,46.9 c2,16.1 -1.9,30.5 -12.8,42.3 c-25.7,27.9 -16.8,70.2 15,87.1 c37,19.7 35.5,69.2 6.7,90.8 c-7.8,5.8 -16.6,8.9 -26,10.4 c-35.6,5.8 -55.6,40.7 -42.8,74.6 c12.4,32.9 -5.3,66.3 -39.2,74 c-14.1,3.2 -27.3,0.3000000000000002 -39.6,-7.1 c-28.2,-17 -62.3,-7.9 -78,20.9 c-1.5,2.8 -2.6,5.8 -3.7,8.9 c-8.1,23.1 -27.9,37.4 -51.7,37.3 c-24,-0.1 -43.5,-14.2 -51.5,-37.5 c-12.1,-34.8 -50.1,-48.5 -81.8,-29.6 c-18.7,11.2 -37.9,11.6 -56.4,0.2 c-18.2,-11.2 -27.5,-27.9 -26.3,-49.5 c0.3000000000000002,-5.8 1.9,-11.7 3.9,-17.2 c12.7,-34.6 -7.1,-68.9 -43.4,-75.1 c-21.4,-3.6 -36.6,-15.2 -43.6,-35.9 c-6.6,-19.6 -3.7,-38.1 10.4,-53.8 c4.1,-4.6 9.3,-8.5 14.6,-11.6 c33.1,-19.2 39.9,-57.8 15,-86.7 c-25.8,-29.9 -12.3,-76.4 25.5,-87.8 c8.8,-2.6 17.7,-2.6 26.6,-0.9 c27.8,5.3 53.5,-8.5 63,-34.3 c2.4,-6.5 3.8,-13.8 3.5,-20.6 c-1.2,-31.4 22,-55.4 52.3,-57 c17.6,-0.9 32.4,5.6 43.5,19.3 c8.8,10.8 19.3,18.9 33.1,21.5 c22.1,4.2 40.5,-2.4 54.8,-19.9 c21.8,-26.5 59.4,-28.4 82.8,-3.8 C438.6708617210388,28.221944046020496 443.1708617210388,41.32194404602052 442.77086172103884,56.02194404602051 zM302.37086172103886,505.62194404602053 c114.9,-0.5 207,-93.2 206.8,-207.9 c-0.3000000000000002,-113.7 -93.8,-205.9 -208.6,-205.5 c-113.2,0.3000000000000002 -205.3,94.2 -204.8,208.9 C96.17086172103882,413.22194404602055 189.97086172103877,506.0219440460205 302.37086172103886,505.62194404602053 z" id="svg_campaigns_2" fill="#e6e6e6"/>
	<path class="st0" d="M401.9708617210388,190.7219440460205 c-7.5,10.4 -14.2,19.5 -20.8,28.6 c-45.1,61.5 -90.2,123 -135.1,184.6 c-3.2,4.3 -6.3,6.3 -11.9,6 c-10.7,-0.5 -21.5,-0.1 -33.6,-0.1 c2.2,-3.2 3.7,-5.5 5.3,-7.7 c50.6,-69 101.1,-138 151.6,-207.1 c2.3,-3.2 4.7,-4.4 8.7,-4.3 C377.6708617210388,190.92194404602049 389.0708617210388,190.7219440460205 401.9708617210388,190.7219440460205 z" id="svg_campaigns_3" fill="#e6e6e6"/>
	<path class="st0" d="M287.6708617210388,235.62194404602053 c0.3000000000000002,29 -21.3,50.9 -49.1,50.2 c-22,-0.5 -40.2,-16.8 -44.7,-39.9 c-4.5,-23 7,-46.8 26.9,-56.1 c29.7,-13.9 64.5,6.9 66.9,39.9 C287.77086172103884,231.62194404602053 287.6708617210388,233.62194404602053 287.6708617210388,235.62194404602053 zM258.5708617210388,237.82194404602052 c-1.1,-4.9 -1.4,-8.6 -2.7,-12 c-4.8,-12.2 -19.4,-15.3 -27.4,-6.1 c-7.7,8.7 -7.5,24.1 0.3000000000000002,32.6 c7.2,7.8 18.7,7.4 24.4,-1.4 C255.87086172103886,246.82194404602052 256.9708617210388,241.7219440460205 258.5708617210388,237.82194404602052 z" id="svg_campaigns_4" fill="#e6e6e6"/>
	<path class="st0" d="M411.87086172103886,361.12194404602053 c0.1,36.4 -33.1,60.7 -64.9,47.9 c-16.6,-6.7 -25.9,-19.8 -29.2,-37.2 c-4.1,-21.6 5.9,-43.9 23.9,-54 c29.9,-16.8 67.3,3.6 70,38.2 C411.77086172103884,358.0219440460205 411.77086172103884,360.0219440460205 411.87086172103886,361.12194404602053 zM346.27086172103884,362.72194404602055 c1.8,5.2 2.6,9.9 4.9,13.8 c6.4,10.8 19.6,11.3 26.9,1.4 c6.6,-8.9 5.7,-23.7 -1.9,-31.4 c-7.1,-7.2 -18.1,-6.9 -23.8,1.4 C349.37086172103886,352.22194404602055 348.1708617210388,357.82194404602046 346.27086172103884,362.72194404602055 z" id="svg_campaigns_5" fill="#e6e6e6"/>
</g>
</svg>
