<svg id="Group_944" data-name="Group 944" xmlns="http://www.w3.org/2000/svg" xmlns:xlink="http://www.w3.org/1999/xlink" width="22.394" height="31.538" viewBox="0 0 22.394 31.538">
  <g id="Group_943" data-name="Group 943">
    <path id="Path_287" data-name="Path 287" d="M8.288,127.831c.832-.774,1.61-1.5,2.393-2.225.427-.4.611-.393,1.035,0,.781.725,1.561,1.451,2.39,2.223.554-.829,1.128-1.6,1.606-2.429a1.431,1.431,0,0,1,1.559-.825c.586.066,1.185,0,1.777.021a3.424,3.424,0,0,1,3.329,3.376q.032,6.023,0,12.047a3.4,3.4,0,0,1-3.405,3.4q-7.777.028-15.554,0a3.4,3.4,0,0,1-3.4-3.4q-.033-6,0-12A3.416,3.416,0,0,1,3.4,124.6c.762-.022,1.527-.037,2.286.011a1.04,1.04,0,0,1,.688.387c.65.906,1.253,1.846,1.914,2.836" transform="translate(0 -111.895)" fill="#e6e6e6"/>
    <path id="Path_288" data-name="Path 288" d="M49.969,6.119a6.116,6.116,0,1,1,12.232,0,6.116,6.116,0,1,1-12.232,0" transform="translate(-44.888 0)" fill="#e6e6e6"/>
  </g>
</svg>
