<svg id="Group_946" data-name="Group 946" xmlns="http://www.w3.org/2000/svg" xmlns:xlink="http://www.w3.org/1999/xlink" width="27.663" height="28.809" viewBox="0 0 27.663 28.809">
  <g id="Group_945" data-name="Group 945">
    <path id="Path_289" data-name="Path 289" d="M30.124,0l-.188.043,0-.016a4.133,4.133,0,0,1,.593.116,1.7,1.7,0,0,1,1.193,1.475q.123.879.243,1.757c.108.792.213,1.583.323,2.375.075.543.158,1.085.234,1.628.087.625.168,1.25.256,1.874.114.818.234,1.636.348,2.455.106.76.207,1.521.312,2.282.068.493.108.992.219,1.475a.939.939,0,0,1-.055.658,1.074,1.074,0,0,1-1.114.579,1.054,1.054,0,0,1-.907-.877c-.116-.755-.219-1.512-.327-2.268s-.217-1.528-.325-2.292q-.218-1.553-.435-3.107c-.137-.97-.277-1.939-.415-2.908-.113-.795-.222-1.59-.336-2.385-.037-.26-.081-.518-.123-.786H11.483c-.03.255-.059.511-.092.766-.08.61-.163,1.219-.243,1.828-.077.582-.151,1.165-.228,1.748-.083.625-.169,1.25-.252,1.875-.075.571-.145,1.142-.22,1.713-.079.6-.161,1.2-.241,1.793q-.126.949-.25,1.9t-.25,1.91c-.015.112-.023.227-.048.337a1.166,1.166,0,0,1-.9.812,1.131,1.131,0,0,1-1.288-1.29c.19-1.354.369-2.709.552-4.064q.247-1.828.491-3.657.241-1.8.481-3.6c.121-.9.234-1.795.375-2.688a1.688,1.688,0,0,1,1.651-1.4c.045,0,.09-.008.153-.014L10.966,0Z" transform="translate(-6.755)" fill="#e6e6e6"/>
    <path id="Path_290" data-name="Path 290" d="M27.66,194.661a.629.629,0,0,0-.676-.5q-6.572.009-13.145,0H10.721L.589,194.153a.549.549,0,0,0-.456.226.617.617,0,0,0-.087.62c.23.674.453,1.35.678,2.026l2.1,6.3c.053.16.1.32.159.479a1.3,1.3,0,0,0,1.226.879H22.5c.357,0,.714,0,1.071,0a1.114,1.114,0,0,0,.527-.142,1.42,1.42,0,0,0,.662-.9c.542-1.639,1.091-3.275,1.635-4.913q.612-1.844,1.216-3.691a.937.937,0,0,0,.051-.377m-9.012,3a.873.873,0,0,1-.823.768c-.172.014-.345.012-.517.012q-3.565,0-7.129,0A2.262,2.262,0,0,1,9.7,198.4a.946.946,0,0,1-.75-.987.964.964,0,0,1,.917-.9c.474,0,.949-.009,1.423-.01.835,0,1.671,0,2.506,0v0h3.776a1.268,1.268,0,0,1,.582.116.95.95,0,0,1,.494,1.037" transform="translate(0 -175.877)" fill="#e6e6e6"/>
    <path id="Path_291" data-name="Path 291" d="M74.135,157.071v1.745c-.035,0-.064.008-.095.008H56.99a.329.329,0,0,1-.116,0c-.031-.012-.073-.049-.073-.076,0-.537,0-1.074,0-1.612a.355.355,0,0,1,.012-.061Z" transform="translate(-51.454 -142.286)" fill="#e6e6e6"/>
    <path id="Path_292" data-name="Path 292" d="M61.23,122.33c0-.068,0-.114,0-.16,0-.494,0-.988-.007-1.482,0-.072.026-.1.094-.1H77.2c.35,0,.351,0,.352.353,0,.427,0,.855,0,1.282,0,.077-.015.111-.1.111q-5.129,0-10.259,0H61.23" transform="translate(-55.46 -109.235)" fill="#e6e6e6"/>
    <path id="Path_293" data-name="Path 293" d="M73.872,82.885H81.13c.055,0,.11,0,.165,0,.178,0,.172-.025.172.182,0,.471,0,.941,0,1.412,0,.11-.025.152-.151.152q-7.447-.005-14.894,0c-.109,0-.148-.024-.147-.143.006-.506,0-1.012,0-1.517,0-.086.045-.086.1-.086l.953,0h6.541Z" transform="translate(-60.037 -75.083)" fill="#e6e6e6"/>
    <path id="Path_294" data-name="Path 294" d="M86.149,45.085c0,.285,0,.555,0,.826s0,.533.008.8c0,.1-.028.135-.127.126-.078-.007-.157,0-.235,0H72.218c-.231,0-.232,0-.232-.229,0-.505,0-1.011,0-1.523Z" transform="translate(-65.21 -40.841)" fill="#e6e6e6"/>
  </g>
</svg>
