<svg width="32" height="32" viewBox="0 0 32 32" fill="none" xmlns="http://www.w3.org/2000/svg">
<g id="mini-vertical-logo-onecolor-blue-atlassian">
<g id="Group">
<g id="Group_2">
<g id="Group_3">
<g id="Group_4">
<path id="Vector" d="M17.8552 30.932C17.8552 30.3122 17.5237 30.0239 16.6156 29.8365C16.1111 29.7212 15.9814 29.6059 15.9814 29.4473C15.9814 29.2456 16.1688 29.1591 16.5003 29.1591C16.9039 29.1591 17.3075 29.2888 17.6822 29.4473V28.6402C17.4084 28.5105 17.0048 28.3951 16.5291 28.3951C15.6211 28.3951 15.1454 28.7843 15.1454 29.4329C15.1454 29.9518 15.3904 30.3554 16.3273 30.5428C16.8895 30.6581 17.0048 30.7446 17.0048 30.932C17.0048 31.1193 16.8895 31.2347 16.4859 31.2347C16.0246 31.2347 15.4769 31.0761 15.131 30.8599V31.7103C15.4193 31.8544 15.794 31.9986 16.4859 31.9986C17.466 32.0274 17.8552 31.595 17.8552 30.932Z" fill="#0052CC"/>
<path id="Vector_2" d="M27.7719 28.4672V31.9698H28.5214V29.3032L28.8385 30.0095L29.8907 31.9698H30.8276V28.4672H30.078V30.7302L29.8042 30.0672L28.9538 28.4672H27.7719Z" fill="#0052CC"/>
<path id="Vector_3" d="M23.0153 28.4672H22.1937V31.9698H23.0153V28.4672Z" fill="#0052CC"/>
<path id="Vector_4" d="M21.2568 30.932C21.2568 30.3122 20.9253 30.0239 20.0172 29.8365C19.5127 29.7212 19.383 29.6059 19.383 29.4473C19.383 29.2456 19.5704 29.1591 19.9019 29.1591C20.3055 29.1591 20.7091 29.2888 21.0838 29.4473V28.6402C20.81 28.5105 20.4064 28.3951 19.9307 28.3951C19.0227 28.3951 18.547 28.7843 18.547 29.4329C18.547 29.9518 18.792 30.3554 19.7289 30.5428C20.2911 30.6581 20.4064 30.7446 20.4064 30.932C20.4064 31.1193 20.2911 31.2347 19.8875 31.2347C19.4263 31.2347 18.8785 31.0761 18.5326 30.8599V31.7103C18.8209 31.8544 19.1956 31.9986 19.8875 31.9986C20.8676 32.0274 21.2568 31.595 21.2568 30.932Z" fill="#0052CC"/>
<path id="Vector_5" d="M8.80328 28.4672V31.9698H10.4897L10.7491 31.2203H9.62487V28.4672H8.80328Z" fill="#0052CC"/>
<path id="Vector_6" d="M5.4881 28.4669V29.2309H6.39617V31.9695H7.21775V29.2309H8.19789V28.4669H5.4881Z" fill="#0052CC"/>
</g>
</g>
<path id="Vector_7" d="M4.30621 28.467H3.22517L2 31.9695H2.9369L3.10986 31.3786C3.31166 31.4362 3.54228 31.4795 3.75848 31.4795C3.9891 31.4795 4.20531 31.4506 4.4071 31.3786L4.58007 31.9695H5.51697L4.30621 28.467ZM3.75848 30.7444C3.59993 30.7444 3.45579 30.7155 3.31166 30.6867L3.75848 29.1588L4.20531 30.6867C4.06117 30.7299 3.91703 30.7444 3.75848 30.7444Z" fill="#0052CC"/>
<path id="Vector_8" d="M13.3869 28.4672H12.3059L11.0807 31.9698H12.0176L12.1906 31.3788C12.3923 31.4365 12.623 31.4797 12.8392 31.4797C13.0698 31.4797 13.286 31.4509 13.4878 31.3788L13.6608 31.9698H14.5977L13.3869 28.4672ZM12.8392 30.7446C12.6806 30.7446 12.5365 30.7158 12.3923 30.6869L12.8392 29.1591L13.286 30.6869C13.1419 30.7302 12.9977 30.7446 12.8392 30.7446Z" fill="#0052CC"/>
<path id="Vector_9" d="M25.9557 28.4672H24.8747L23.6495 31.9698H24.5864L24.7594 31.3788C24.9612 31.4365 25.1918 31.4797 25.408 31.4797C25.6386 31.4797 25.8548 31.4509 26.0566 31.3788L26.2296 31.9698H27.1665L25.9557 28.4672ZM25.4224 30.7446C25.2639 30.7446 25.1197 30.7158 24.9756 30.6869L25.4224 29.1591L25.8693 30.6869C25.7251 30.7302 25.581 30.7446 25.4224 30.7446Z" fill="#0052CC"/>
</g>
<g id="Group_5">
<path id="Vector_10" d="M10.8356 12.2374C10.6915 12.0788 10.4897 11.9924 10.2879 12.0212C10.1149 12.05 9.95636 12.1797 9.88429 12.3383L3.35484 25.3972C3.2107 25.6855 3.32601 26.017 3.61429 26.1611C3.70077 26.2044 3.78725 26.2188 3.87374 26.2188H12.9688C13.1851 26.2188 13.3868 26.1035 13.4733 25.9017C15.3904 21.9667 14.2084 15.8264 10.8356 12.2374Z" fill="#0052CC"/>
<path id="Vector_11" d="M29.4726 25.3971C29.3573 25.1521 17.2353 0.90807 16.9326 0.30269C16.8461 0.129724 16.6876 0.0144138 16.5002 0H16.4858C16.2696 0.0144138 16.0822 0.129724 15.9669 0.317104C12.6805 5.52049 12.3058 11.8049 14.9723 17.1236L19.3541 25.9016C19.455 26.1034 19.6424 26.2187 19.873 26.2187H28.9537C29.2708 26.2187 29.5303 25.9593 29.5303 25.6422C29.5303 25.5701 29.5159 25.4836 29.4726 25.3971Z" fill="#0052CC"/>
</g>
</g>
</g>
</svg>
