<svg id="Group_954" data-name="Group 954" xmlns="http://www.w3.org/2000/svg" xmlns:xlink="http://www.w3.org/1999/xlink" width="28.025" height="33.672" viewBox="0 0 28.025 33.672">
  <g id="Group_953" data-name="Group 953">
    <path id="Path_306" data-name="Path 306" d="M14,28.8q-6.585,0-13.171,0a1.477,1.477,0,0,1-.4-.041.485.485,0,0,1-.4-.446,12.816,12.816,0,0,1,.12-3.027,5.157,5.157,0,0,1,1.84-2.951,3.626,3.626,0,0,0,1.4-3.072c-.019-2.08-.011-4.159,0-6.239A10.419,10.419,0,0,1,5.67,6.463a10.507,10.507,0,0,1,5.743-3.782c.459-.12.46-.118.51-.595A2.376,2.376,0,0,1,14.274,0a2.322,2.322,0,0,1,2.271,2.321c0,.15-.074.312.189.388A10.534,10.534,0,0,1,24,9.371a9.791,9.791,0,0,1,.639,3.464q.021,3.306,0,6.613A3.414,3.414,0,0,0,25.976,22.3a4.843,4.843,0,0,1,1.616,2.176,7.986,7.986,0,0,1,.4,1.782A16.56,16.56,0,0,1,28,28.2a.593.593,0,0,1-.6.6c-.159.013-.32,0-.48,0H14" transform="translate(0 0)" fill="#e6e6e6"/>
    <path id="Path_307" data-name="Path 307" d="M53.056,145.324a3.393,3.393,0,0,1-3.406-3.183c-.011-.135.032-.2.171-.2h.533c1.963,0,3.927,0,5.891-.014.205,0,.233.081.22.256a3.386,3.386,0,0,1-3.409,3.143" transform="translate(-39.059 -111.655)" fill="#e6e6e6"/>
  </g>
</svg>
