<svg id="Group_948" data-name="Group 948" xmlns="http://www.w3.org/2000/svg" xmlns:xlink="http://www.w3.org/1999/xlink" width="28.754" height="28.809" viewBox="0 0 28.754 28.809">
  <g id="Group_947" data-name="Group 947">
    <path id="Path_295" data-name="Path 295" d="M2.479.053Q5.334.228,8.19.4c1.242.074,2.484.141,3.726.213.331.019.665.024.992.074a2.2,2.2,0,0,1,1.251.64q3.112,3.115,6.229,6.223,3.773,3.772,7.545,7.546a2.249,2.249,0,0,1,.048,3.436c-1.838,1.872-3.7,3.716-5.56,5.571l-3.938,3.937a2.264,2.264,0,0,1-3.392.006q-3.426-3.415-6.844-6.839c-2.221-2.223-4.425-4.462-6.667-6.664A3.274,3.274,0,0,1,.557,12.234C.457,10.1.313,7.97.188,5.839.126,4.783.062,3.728.005,2.672A2.265,2.265,0,0,1,1.415.225,6.573,6.573,0,0,1,2.467,0l.012.052m1.536,6.32a2.284,2.284,0,1,0,2.277-2.3,2.271,2.271,0,0,0-2.277,2.3" transform="translate(0 -0.001)" fill="#e6e6e6"/>
  </g>
</svg>
