<svg id="Group_952" data-name="Group 952" xmlns="http://www.w3.org/2000/svg" xmlns:xlink="http://www.w3.org/1999/xlink" width="31.11" height="33.672" viewBox="0 0 31.11 33.672">
  <g id="Group_951" data-name="Group 951">
    <path id="Path_297" data-name="Path 297" d="M116.429,142.714l.57-.057a7.6,7.6,0,0,1-6.877-9.579,7.609,7.609,0,0,1,14.9,1.142,7.435,7.435,0,0,1-1.741,5.755,7.249,7.249,0,0,1-5.382,2.665l.331.074h-1.806m-.217-8.725c0,.734-.005,1.468.005,2.2a.833.833,0,0,0,.111.388.777.777,0,0,0,.71.387c.517,0,1.035,0,1.552,0,.578,0,1.156,0,1.733-.005a.825.825,0,0,0,.571-.181.856.856,0,0,0,.265-.914.872.872,0,0,0-.8-.627c-.74-.009-1.48,0-2.22,0-.23,0-.228,0-.226-.24.008-.969.023-1.938.016-2.906a1.724,1.724,0,0,0-.136-.643.811.811,0,0,0-.975-.419.8.8,0,0,0-.608.791q0,1.083,0,2.166" transform="translate(-93.957 -109.041)" fill="#108f10"/>
    <path id="Path_298" data-name="Path 298" d="M25.986,0c.089.027.177.061.268.079a1.81,1.81,0,0,1,1.5,1.728c.013.2.018.4.018.6q0,6.232-.005,12.464a.787.787,0,0,1-.569.841.733.733,0,0,1-.842-.279,1.238,1.238,0,0,1-.175-.573q-.011-6.286,0-12.572a3.624,3.624,0,0,0-.02-.432.26.26,0,0,0-.307-.253c-.283.012-.566.012-.849.012H3.233c-.187,0-.374-.009-.56,0-.228.012-.306.1-.318.328-.007.126,0,.253,0,.379q0,13.367,0,26.734c0,.211-.005.422,0,.632.007.329.1.417.425.418H9.259c1.144,0,2.288,0,3.432,0a.789.789,0,1,1,.008,1.578c-.4,0-.795-.015-1.192-.015q-4.443,0-8.887,0A1.771,1.771,0,0,1,.879,30.354a4.794,4.794,0,0,1-.062-1.113Q.811,23.9.814,18.566q0-8.173,0-16.347c0-.223,0-.446.014-.668A1.788,1.788,0,0,1,2.279.073.822.822,0,0,0,2.466,0Z" transform="translate(-0.695)" fill="#108f10"/>
    <path id="Path_299" data-name="Path 299" d="M0,18.25c.007.125.019.25.02.376q0,6.926,0,13.852,0,6.366,0,12.731A.817.817,0,0,1,0,45.347V18.25" transform="translate(0 -15.613)" fill="#108f10"/>
    <path id="Path_300" data-name="Path 300" d="M74.993,44.619H70.659a.751.751,0,0,1-.83-.809A.784.784,0,0,1,70.654,43q4.334,0,8.669,0a.807.807,0,0,1,.788.523.815.815,0,0,1-.264.942,1.017,1.017,0,0,1-.52.153c-1.445.012-2.889.007-4.334.007v0" transform="translate(-59.738 -36.785)" fill="#108f10"/>
    <path id="Path_301" data-name="Path 301" d="M71.8,92.129H67.5a.813.813,0,0,1-.6-.191.775.775,0,0,1-.213-.843.708.708,0,0,1,.641-.528,2.593,2.593,0,0,1,.27-.012h8.382a2.162,2.162,0,0,1,.324.02.784.784,0,0,1,.679.806.772.772,0,0,1-.775.745c-.789.01-1.577.005-2.366.006H71.8Z" transform="translate(-57.012 -77.467)" fill="#108f10"/>
    <path id="Path_302" data-name="Path 302" d="M72.4,139.776c.559,0,1.119.008,1.678,0a.768.768,0,0,1,.775.531.756.756,0,0,1-.4.975,1.473,1.473,0,0,1-.524.108c-1.022.01-2.045.008-3.068,0a1.5,1.5,0,0,1-.477-.077.759.759,0,0,1-.5-.9.787.787,0,0,1,.769-.636c.583-.005,1.167,0,1.75,0Z" transform="translate(-59.77 -119.57)" fill="#108f10"/>
    <path id="Path_303" data-name="Path 303" d="M36.672,87.548a1.423,1.423,0,1,1-2.846.007,1.423,1.423,0,1,1,2.846-.007" transform="translate(-28.938 -73.672)" fill="#108f10"/>
    <path id="Path_304" data-name="Path 304" d="M36.674,136.9a1.423,1.423,0,1,1-1.433-1.429,1.414,1.414,0,0,1,1.433,1.429" transform="translate(-28.939 -115.89)" fill="#108f10"/>
    <path id="Path_305" data-name="Path 305" d="M32.795,41.351c.479-.38.965-.755,1.438-1.145a.427.427,0,0,1,.688.053.519.519,0,0,1-.039.747c-.242.216-.5.413-.756.615-.357.286-.712.574-1.075.852-.289.221-.41.218-.677-.032-.285-.267-.559-.547-.827-.832a.458.458,0,0,1-.029-.651.527.527,0,0,1,.741-.115c.191.153.358.336.536.508" transform="translate(-26.858 -34.267)" fill="#108f10"/>
  </g>
</svg>
