<svg id="Group_950" data-name="Group 950" xmlns="http://www.w3.org/2000/svg" xmlns:xlink="http://www.w3.org/1999/xlink" width="27.04" height="31.538" viewBox="0 0 27.04 31.538">
  <g id="Group_949" data-name="Group 949">
    <path id="Path_296" data-name="Path 296" d="M2.227,13.524c.331-.191.641-.387.966-.552A5.545,5.545,0,0,1,5.565,12.4a1.141,1.141,0,0,1,1.164,1.153c-.019,2.892-.01,5.785-.01,8.677a1.422,1.422,0,0,1-.12.817,1.081,1.081,0,0,1-.953.565,5.447,5.447,0,0,1-4.3-2A5.623,5.623,0,0,1,.006,17.763c.008-1.476-.02-2.952,0-4.428A13.237,13.237,0,0,1,2.649,5.461,13.362,13.362,0,0,1,9.413.633,12.693,12.693,0,0,1,12.37.045a13.359,13.359,0,0,1,10.065,3.3A13.018,13.018,0,0,1,26.44,9.5a13.715,13.715,0,0,1,.6,4.2c-.016,1.69.021,3.381-.017,5.07a12.328,12.328,0,0,1-1.976,6.5,13.234,13.234,0,0,1-8.859,5.969,21.569,21.569,0,0,1-2.362.285,1.615,1.615,0,0,1-.719-.12.992.992,0,0,1-.67-.956c-.008-.781-.015-1.563,0-2.344A1.048,1.048,0,0,1,13.5,27.061c1.109-.011,2.218-.007,3.327-.007a1.086,1.086,0,0,1,1.16,1.224.8.8,0,0,0,.02.163,11.158,11.158,0,0,0,5.725-5.294c-.1.026-.142.035-.186.052a5.512,5.512,0,0,1-2.127.413,1.09,1.09,0,0,1-1.108-1.1q0-4.479.008-8.957A1.08,1.08,0,0,1,21.482,12.4a5.2,5.2,0,0,1,2.442.606c.3.154.585.338.914.53a11.1,11.1,0,0,0-4.646-9.18,11.365,11.365,0,0,0-12.2-.728,11.116,11.116,0,0,0-5.761,9.894m20.3,7.713a3.413,3.413,0,0,0,0-6.449ZM4.507,21.2V14.8A3.419,3.419,0,0,0,2.22,17.961,3.373,3.373,0,0,0,4.507,21.2" transform="translate(0 0)" fill="#108f10"/>
  </g>
</svg>
