<?xml version="1.0" encoding="iso-8859-1"?>
<!-- Generator: Adobe Illustrator 19.0.0, SVG Export Plug-In . SVG Version: 6.00 Build 0)  -->
<svg version="1.1" id="Capa_1" xmlns="http://www.w3.org/2000/svg" xmlns:xlink="http://www.w3.org/1999/xlink" x="0px" y="0px"
	 viewBox="0 0 59.982 59.982" style="enable-background:new 0 0 59.982 59.982;" xml:space="preserve">
<g>
	<path d="M51.991,7.982c-14.596,0-21.14-7.532-21.233-7.642c-0.38-0.456-1.156-0.453-1.535,0.001
		c-0.064,0.077-6.537,7.641-21.232,7.641c-0.552,0-1,0.447-1,1v19.085c0,10.433,4.69,20.348,12.546,26.521
		c3.167,2.489,6.588,4.29,10.169,5.353c0.093,0.027,0.189,0.041,0.285,0.041s0.191-0.014,0.285-0.041
		c3.581-1.063,7.002-2.863,10.169-5.353c7.856-6.174,12.546-16.089,12.546-26.521V8.982C52.991,8.43,52.543,7.982,51.991,7.982z
		 M50.991,28.067c0,9.824-4.404,19.151-11.782,24.949c-2.883,2.266-5.983,3.92-9.218,4.921c-3.235-1.001-6.335-2.655-9.218-4.921
		C13.396,47.219,8.991,37.892,8.991,28.067V9.972c12.242-0.272,18.865-5.497,21-7.546c2.135,2.049,8.758,7.273,21,7.546V28.067z"/>
	<path d="M30.341,27.516c-0.507,0.21-0.749,0.793-0.543,1.302c0.015,0.038,1.531,3.94,1.106,16.13
		c-0.019,0.553,0.413,1.016,0.965,1.034c0.012,0.001,0.023,0.001,0.035,0.001c0.536,0,0.98-0.425,0.999-0.965
		c0.445-12.78-1.191-16.807-1.261-16.972C31.43,27.541,30.85,27.302,30.341,27.516z"/>
	<path d="M22.147,14.67c-0.232,0.16-0.464,0.32-0.701,0.474c-0.463,0.302-0.595,0.921-0.293,1.384s0.92,0.595,1.383,0.294
		c0.252-0.164,0.5-0.335,0.748-0.506c0.638-0.44,1.24-0.857,1.909-1.136c1.76-0.735,3.621-1.108,5.53-1.108
		c5.783,0,10.976,3.441,13.229,8.768c1.185,2.801,1.834,5.102,2.044,7.241c0.05,0.517,0.485,0.902,0.994,0.902
		c0.032,0,0.065-0.002,0.098-0.005c0.55-0.054,0.952-0.543,0.898-1.093c-0.229-2.346-0.926-4.833-2.192-7.825
		c-2.567-6.067-8.483-9.988-15.071-9.988c-2.176,0-4.296,0.425-6.301,1.263C23.56,13.693,22.842,14.189,22.147,14.67z"/>
	<path d="M15.998,28.36c0.114-4.222,1.288-7.293,3.696-9.666c0.393-0.388,0.398-1.021,0.01-1.414
		c-0.388-0.393-1.021-0.398-1.415-0.01c-2.799,2.759-4.163,6.266-4.291,11.035l0,0.001l0,0c-0.076,2.81,0.253,5.339,1.034,7.961
		c0.129,0.435,0.527,0.715,0.958,0.715c0.095,0,0.191-0.014,0.286-0.042c0.529-0.157,0.831-0.714,0.673-1.243
		C16.231,33.283,15.928,30.953,15.998,28.36z"/>
	<path d="M43.87,28.172c-0.193-1.205-0.464-2.31-0.827-3.379c-1.656-4.881-6.973-8.993-11.852-9.167
		c-1.869-0.069-3.686,0.263-5.404,0.979c-4.748,1.981-7.844,6.581-7.887,11.718c-0.011,1.212,0.152,2.421,0.485,3.596
		c0.174,0.617,0.339,1.222,0.428,1.832c0.211,1.442,0.266,3.974,0.178,8.211c-0.011,0.552,0.427,1.009,0.979,1.021
		c0.007,0,0.014,0,0.021,0c0.542,0,0.988-0.435,1-0.979c0.09-4.352,0.029-6.986-0.199-8.541c-0.106-0.729-0.297-1.432-0.483-2.088
		c-0.281-0.991-0.418-2.012-0.409-3.033c0.037-4.336,2.65-8.218,6.658-9.89c1.45-0.605,2.978-0.89,4.563-0.827
		c4.049,0.145,8.642,3.722,10.03,7.812c0.326,0.962,0.57,1.961,0.746,3.055l0,0c0,0,0,0.001,0,0.001
		c0.353,2.192,0.272,4.749,0.161,8.287l-0.065,2.177c-0.015,0.552,0.42,1.012,0.972,1.027c0.009,0,0.019,0,0.028,0
		c0.54,0,0.984-0.43,0.999-0.973l0.065-2.168c0.115-3.65,0.197-6.287-0.186-8.669C43.871,28.173,43.87,28.172,43.87,28.172z"/>
	<path d="M23.9,30.968c-0.231-0.856-0.336-1.733-0.312-2.605c0-0.001,0-0.001,0-0.002c0.063-2.196,1.021-5.186,2.978-6.56
		c0.452-0.317,0.561-0.941,0.244-1.393c-0.317-0.452-0.94-0.563-1.393-0.244c-2.535,1.779-3.749,5.37-3.828,8.14
		c0,0.001,0,0.002,0,0.003c-0.03,1.067,0.098,2.138,0.378,3.177c0.013,0.05,0.035,0.121,0.066,0.217
		c1.032,3.26,1.091,8.459,0.958,12.247c-0.019,0.552,0.413,1.016,0.965,1.034c0.012,0.001,0.023,0.001,0.035,0.001
		c0.536,0,0.98-0.425,0.999-0.965c0.2-5.738-0.153-10.086-1.051-12.921L23.9,30.968z"/>
	<path d="M40.262,28.14c-0.229-1.184-0.555-2.269-0.999-3.317c-1.524-3.603-4.694-5.84-8.272-5.84c-0.67,0-1.34,0.072-1.989,0.216
		c-0.54,0.119-0.88,0.652-0.761,1.192c0.119,0.539,0.651,0.874,1.192,0.761c0.508-0.112,1.033-0.169,1.559-0.169
		c2.761,0,5.225,1.77,6.43,4.619c0.388,0.918,0.675,1.872,0.876,2.917c0,0.001,0,0.002,0,0.003
		c0.458,2.375,0.951,6.048,0.693,13.426c-0.019,0.553,0.413,1.016,0.965,1.034c0.012,0.001,0.023,0.001,0.035,0.001
		c0.536,0,0.98-0.425,0.999-0.965c0.206-5.914-0.019-10.193-0.729-13.875C40.262,28.142,40.262,28.141,40.262,28.14z"/>
	<path d="M36.991,41.212l0-0.224c0.003-0.552-0.441-1.002-0.994-1.006c-0.002,0-0.004,0-0.006,0c-0.549,0-0.997,0.443-1,0.994
		l0,0.235c0,0.334,0.005,0.628,0.01,0.918c0.004,0.272,0.009,0.541,0.009,0.852c0,0.553,0.448,0.993,1,0.993s1-0.455,1-1.008
		c0-0.308-0.004-0.587-0.009-0.87C36.996,41.817,36.991,41.533,36.991,41.212z"/>
	<path d="M36.008,28.074c-0.24-0.898-0.453-1.399-0.555-1.64c-0.805-1.904-2.662-3.135-4.73-3.135c-0.682,0-1.348,0.134-1.979,0.396
		c-1.862,0.776-3.1,2.586-3.155,4.609c-0.019,0.68,0.096,1.346,0.331,1.953c0.239,0.725,1.416,4.837,1.072,14.688
		c-0.019,0.552,0.413,1.016,0.965,1.034c0.012,0.001,0.023,0.001,0.035,0.001c0.536,0,0.98-0.425,0.999-0.965
		c0.347-9.937-0.809-14.289-1.195-15.453c-0.149-0.386-0.219-0.791-0.208-1.204c0.034-1.238,0.79-2.344,1.926-2.818
		c0.386-0.161,0.792-0.242,1.209-0.242c1.263,0,2.396,0.751,2.889,1.915c0.084,0.199,0.26,0.612,0.463,1.375c0,0,0,0.001,0,0.001
		c0.401,1.499,0.903,4.333,1.018,9.323c0.012,0.545,0.458,0.978,0.999,0.978c0.008,0,0.016,0,0.023,0
		c0.552-0.013,0.989-0.471,0.977-1.022c-0.094-4.105-0.469-7.491-1.084-9.793L36.008,28.074z"/>
</g>
<g>
</g>
<g>
</g>
<g>
</g>
<g>
</g>
<g>
</g>
<g>
</g>
<g>
</g>
<g>
</g>
<g>
</g>
<g>
</g>
<g>
</g>
<g>
</g>
<g>
</g>
<g>
</g>
<g>
</g>
</svg>
