<?xml version="1.0" encoding="iso-8859-1"?>
<!-- Generator: Adobe Illustrator 19.0.0, SVG Export Plug-In . SVG Version: 6.00 Build 0)  -->
<svg version="1.1" id="Capa_1" xmlns="http://www.w3.org/2000/svg" xmlns:xlink="http://www.w3.org/1999/xlink" x="0px" y="0px"
	 viewBox="0 0 480.001 480.001" style="enable-background:new 0 0 480.001 480.001;" xml:space="preserve">
<g>
	<g>
		<path d="M128,0C57.308,0,0,57.308,0,128c0.084,70.658,57.342,127.916,128,128c70.692,0,128-57.308,128-128S198.692,0,128,0z
			 M128,240c-61.856,0-112-50.144-112-112C16.066,66.172,66.172,16.067,128,16c61.856,0,112,50.144,112,112S189.856,240,128,240z"/>
	</g>
</g>
<g>
	<g>
		<path d="M128,32c-53.019,0-96,42.981-96,96c0.057,52.996,43.004,95.943,96,96c53.019,0,96-42.981,96-96S181.019,32,128,32z
			 M128,208c-44.183,0-80-35.817-80-80c0.049-44.163,35.837-79.951,80-80c44.183,0,80,35.817,80,80S172.183,208,128,208z"/>
	</g>
</g>
<g>
	<g>
		<path d="M352,256c-53.019,0-96,42.981-96,96s42.981,96,96,96s96-42.981,96-96C447.943,299.005,404.996,256.058,352,256z M352,432
			c-44.183,0-80-35.817-80-80c0-44.183,35.817-80,80-80c44.183,0,80,35.817,80,80C431.952,396.163,396.163,431.952,352,432z"/>
	</g>
</g>
<g>
	<g>
		<path d="M352,224c-70.692,0-128,57.308-128,128s57.308,128,128,128s128-57.308,128-128C479.916,281.343,422.658,224.084,352,224z
			 M352,464c-61.856,0-112-50.144-112-112s50.144-112,112-112s112,50.144,112,112C463.934,413.829,413.828,463.934,352,464z"/>
	</g>
</g>
<g>
	<g>
		<path d="M383.663,382.034c-3.884-2.107-8.74-0.667-10.847,3.217c-0.095,0.175-0.183,0.353-0.264,0.534
			C368.958,394.043,360.995,399.551,352,400c-12.68-1.131-22.664-11.301-23.56-24H352c4.418,0,8-3.582,8-8s-3.582-8-8-8h-24v-16h24
			c4.418,0,8-3.582,8-8s-3.582-8-8-8h-23.56c0.896-12.699,10.88-22.869,23.56-24c8.995,0.45,16.958,5.958,20.552,14.216
			c1.812,4.03,6.548,5.827,10.577,4.015s5.827-6.548,4.015-10.577c-0.081-0.181-0.17-0.359-0.264-0.534
			c-6.253-13.739-19.79-22.712-34.88-23.12c-21.499,1.254-38.606,18.492-39.696,40H304c-4.418,0-8,3.582-8,8s3.582,8,8,8h8v16h-8
			c-4.418,0-8,3.582-8,8s3.582,8,8,8h8.304c1.09,21.508,18.197,38.746,39.696,40c15.09-0.408,28.627-9.381,34.88-23.12
			C388.987,388.997,387.547,384.141,383.663,382.034z"/>
	</g>
</g>
<g>
	<g>
		<path d="M136,120h-16c-8.672,0-16-5.496-16-12c0-6.504,7.328-12,16-12h40c4.418,0,8-3.582,8-8s-3.582-8-8-8h-24v-8
			c0-4.418-3.582-8-8-8s-8,3.582-8,8v8c-16.537-1.012-30.808,11.475-32,28c1.192,16.525,15.463,29.012,32,28h16
			c8.672,0,16,5.496,16,12c0,6.504-7.328,12-16,12H96c-4.418,0-8,3.582-8,8s3.582,8,8,8h24v8c0,4.418,3.582,8,8,8s8-3.582,8-8v-8
			c16.537,1.012,30.808-11.475,32-28C166.808,131.475,152.537,118.989,136,120z"/>
	</g>
</g>
<g>
	<g>
		<path d="M477.777,114.465c-0.079-0.082-0.159-0.162-0.241-0.241h-0.008l-58.4-56c-3.194-3.053-8.258-2.939-11.311,0.255
			c-1.421,1.487-2.215,3.464-2.217,5.521v16H280c-4.418,0-8,3.582-8,8v64c0,4.418,3.582,8,8,8h125.6v16c0,4.418,3.581,8,7.999,8.001
			c2.063,0,4.047-0.797,5.537-2.225l58.4-56C480.726,122.719,480.834,117.655,477.777,114.465z M421.528,157.256V152
			c0-4.418-3.582-8-8-8H288V96h125.6c4.418,0,8-3.582,8-8v-5.256L460.44,120L421.528,157.256z"/>
	</g>
</g>
<g>
	<g>
		<path d="M200,312H74.44v-16c0-4.418-3.581-8-7.999-8.001c-2.063,0-4.047,0.797-5.537,2.225l-58.4,56
			c-3.19,3.057-3.298,8.121-0.241,11.311c0.079,0.082,0.159,0.162,0.241,0.241l58.4,56c3.19,3.057,8.254,2.95,11.311-0.239
			c1.428-1.49,2.225-3.473,2.225-5.537v-16H200c4.418,0,8-3.582,8-8v-64C208,315.582,204.418,312,200,312z M192,376H66.44
			c-4.418,0-8,3.582-8,8v5.256L19.56,352l38.88-37.256V320c0,4.418,3.582,8,8,8H192V376z"/>
	</g>
</g>
<g>
</g>
<g>
</g>
<g>
</g>
<g>
</g>
<g>
</g>
<g>
</g>
<g>
</g>
<g>
</g>
<g>
</g>
<g>
</g>
<g>
</g>
<g>
</g>
<g>
</g>
<g>
</g>
<g>
</g>
</svg>
