<?xml version="1.0" encoding="iso-8859-1"?>
<!-- Generator: Adobe Illustrator 19.0.0, SVG Export Plug-In . SVG Version: 6.00 Build 0)  -->
<svg version="1.1" id="Capa_1" xmlns="http://www.w3.org/2000/svg" xmlns:xlink="http://www.w3.org/1999/xlink" x="0px" y="0px"
	 viewBox="0 0 512 512" style="enable-background:new 0 0 512 512;" xml:space="preserve">
<g>
	<g>
		<path d="M490.667,191.968h-42.453c-3.019-9.141-6.69-18.052-10.987-26.667l29.973-29.973c0.002-0.002,0.004-0.004,0.006-0.006
			c8.329-8.333,8.327-21.84-0.006-30.17L406.848,44.8c-8.441-8.057-21.724-8.057-30.165,0l-30.016,29.995
			c-8.614-4.296-17.526-7.968-26.667-10.987V21.333C320,9.551,310.449,0,298.667,0h-85.333C201.551,0,192,9.551,192,21.333v42.475
			c-9.151,3.01-18.074,6.675-26.699,10.965L135.328,44.8c-8.441-8.069-21.735-8.069-30.176,0L44.8,105.152
			c-8.328,8.331-8.328,21.835,0,30.165l29.995,30.016c-4.296,8.614-7.968,17.526-10.987,26.667H21.333
			C9.551,192,0,201.551,0,213.333V256h21.333v-42.667h50.336c4.754,0.001,8.934-3.144,10.251-7.712
			c3.7-12.925,8.83-25.397,15.296-37.184c2.301-4.161,1.57-9.342-1.792-12.704l-35.531-35.499l60.341-60.341l35.541,35.531
			c3.36,3.357,8.535,4.087,12.693,1.792c11.778-6.462,24.239-11.592,37.152-15.296c4.568-1.317,7.713-5.497,7.712-10.251V21.333
			h85.333v50.336c-0.001,4.754,3.144,8.934,7.712,10.251c12.928,3.701,25.403,8.831,37.195,15.296
			c4.158,2.295,9.333,1.565,12.693-1.792l35.499-35.531l60.341,60.341l-35.531,35.531c-3.362,3.362-4.093,8.543-1.792,12.704
			c6.464,11.777,11.594,24.238,15.296,37.152c1.317,4.568,5.497,7.713,10.251,7.712h50.336V256H512v-42.699
			C512,201.519,502.449,191.968,490.667,191.968z"/>
	</g>
</g>
<g>
	<g>
		<path d="M256,138.667c-58.91,0-106.667,47.756-106.667,106.667V256h21.333v-10.667C170.667,198.205,208.872,160,256,160
			s85.333,38.205,85.333,85.333V256h21.333v-10.667C362.667,186.423,314.91,138.667,256,138.667z"/>
	</g>
</g>
<g>
	<g>
		<rect x="245.33" y="42.667" width="21.333" height="21.333"/>
	</g>
</g>
<g>
	<g>
		<rect x="106.67" y="106.67" width="21.333" height="21.333"/>
	</g>
</g>
<g>
	<g>
		<rect x="42.667" y="234.67" width="21.333" height="21.333"/>
	</g>
</g>
<g>
	<g>
		<rect x="448" y="234.67" width="21.333" height="21.333"/>
	</g>
</g>
<g>
	<g>
		<rect x="384" y="106.67" width="21.333" height="21.333"/>
	</g>
</g>
<g>
	<g>
		<path d="M128,405.333H21.333C9.551,405.333,0,414.885,0,426.667v64C0,502.449,9.551,512,21.333,512H128
			c11.782,0,21.333-9.551,21.333-21.333v-64C149.333,414.885,139.782,405.333,128,405.333z M128,490.667H21.333v-64H128V490.667z"/>
	</g>
</g>
<g>
	<g>
		<path d="M490.667,405.333H384c-11.782,0-21.333,9.551-21.333,21.333v64c0,11.782,9.551,21.333,21.333,21.333h106.667
			c11.782,0,21.333-9.551,21.333-21.333v-64C512,414.885,502.449,405.333,490.667,405.333z M490.667,490.667H384v-64h106.667
			V490.667z"/>
	</g>
</g>
<g>
	<g>
		<path d="M309.333,405.333H202.667c-11.782,0-21.333,9.551-21.333,21.333v64c0,11.782,9.551,21.333,21.333,21.333h106.667
			c11.782,0,21.333-9.551,21.333-21.333v-64C330.667,414.885,321.115,405.333,309.333,405.333z M309.334,490.667h-0.001H202.667v-64
			h106.667V490.667z"/>
	</g>
</g>
<g>
	<g>
		<path d="M437.333,320H74.667C68.776,320,64,324.776,64,330.667V384h21.333v-42.667h341.333V384H448v-53.333
			C448,324.776,443.224,320,437.333,320z"/>
	</g>
</g>
<g>
	<g>
		<rect x="245.33" y="245.33" width="21.333" height="138.67"/>
	</g>
</g>
<g>
	<g>
		<rect x="42.667" y="448" width="21.333" height="21.333"/>
	</g>
</g>
<g>
	<g>
		<rect x="85.33" y="448" width="21.333" height="21.333"/>
	</g>
</g>
<g>
	<g>
		<rect x="224" y="448" width="21.333" height="21.333"/>
	</g>
</g>
<g>
	<g>
		<rect x="266.67" y="448" width="21.333" height="21.333"/>
	</g>
</g>
<g>
	<g>
		<rect x="405.33" y="448" width="21.333" height="21.333"/>
	</g>
</g>
<g>
	<g>
		<rect x="448" y="448" width="21.333" height="21.333"/>
	</g>
</g>
<g>
	<g>
		<path d="M256,192c-29.455,0-53.333,23.878-53.333,53.333V256H224v-10.667c0-17.673,14.327-32,32-32c17.673,0,32,14.327,32,32V256
			h21.333v-10.667C309.333,215.878,285.455,192,256,192z"/>
	</g>
</g>
<g>
</g>
<g>
</g>
<g>
</g>
<g>
</g>
<g>
</g>
<g>
</g>
<g>
</g>
<g>
</g>
<g>
</g>
<g>
</g>
<g>
</g>
<g>
</g>
<g>
</g>
<g>
</g>
<g>
</g>
</svg>
