<?xml version="1.0" encoding="utf-8"?>
<!-- Generator: Adobe Illustrator 17.1.0, SVG Export Plug-In . SVG Version: 6.00 Build 0)  -->
<!DOCTYPE svg PUBLIC "-//W3C//DTD SVG 1.1//EN" "http://www.w3.org/Graphics/SVG/1.1/DTD/svg11.dtd">
<svg version="1.1" id="Layer_1" xmlns="http://www.w3.org/2000/svg" xmlns:xlink="http://www.w3.org/1999/xlink" x="0px" y="0px"
	 viewBox="0 0 31 31" enable-background="new 0 0 31 31" xml:space="preserve">
<g id="Zoho_1_">
	<g>
		<linearGradient id="SVGID_1_" gradientUnits="userSpaceOnUse" x1="0" y1="15.5" x2="31" y2="15.5">
			<stop  offset="0" style="stop-color:#D92432"/>
			<stop  offset="1" style="stop-color:#BA2335"/>
		</linearGradient>
		<rect fill-rule="evenodd" clip-rule="evenodd" fill="url(#SVGID_1_)" width="31" height="31"/>
		<path fill="#FFFFFF" d="M17.5,16.5L17.5,16.5C17.5,16.5,17.5,16.5,17.5,16.5L17.5,16.5L17.5,16.5z M22.7,24.5
			c-0.2-0.3-0.4-0.5-0.8-0.7c-0.3-0.2-0.8-0.3-1.3-0.4c-0.5-0.1-1-0.1-1.7-0.1l-7.4,0c0.2-0.5,0.6-1.2,1.2-2c0.7-0.9,1.7-2,3-3.2
			l0,0c0.4-0.4,0.8-0.7,1-1c0.2-0.1,0.4-0.4,0.7-0.6c2-1.9,3.3-3.4,3.9-4.8c0.4-0.7,0.6-1.5,0.8-2.3c0-0.2,0.1-0.4,0.1-0.6
			c0.1-0.6,0.1-1.1,0.1-1.7c0-0.5-0.1-0.9-0.2-1.3C22.2,5.5,22,5.2,21.8,5c-0.3-0.2-0.7-0.4-1.2-0.5c-0.4-0.1-1-0.1-1.6-0.1l-8.5,0
			c-1,0-1.8,0.2-2.4,0.5C7.7,5.3,7.4,5.7,7.3,6.2c0,0.1,0,0.3,0,0.4c0,0.7,0.3,1.3,0.8,1.7c0.3,0.2,0.7,0.4,1.2,0.4
			c0.3,0.1,0.7,0.1,1.1,0.1l7.1,0c0,0.1,0,0.2,0,0.4c-0.1,0.4-0.2,0.8-0.4,1.2c-0.3,0.5-0.9,1.3-1.9,2.2c-0.3,0.2-0.7,0.6-1.3,1.1
			c-2.2,1.9-3.9,3.6-5,5.1c0,0,0,0,0,0v0c-0.8,1-1.3,2-1.7,3.1c-0.2,0.6-0.4,1.2-0.5,1.8c-0.1,0.4-0.1,0.8-0.1,1.2
			c0,0.6,0.1,1,0.2,1.4c0.1,0.4,0.3,0.7,0.6,0.9c0.2,0.2,0.6,0.3,1.2,0.4c0.7,0.1,1.6,0.2,2.9,0.2l7.7,0c1.4,0,2.3-0.2,2.9-0.5
			c0.5-0.3,0.8-0.7,0.9-1.3c0-0.1,0-0.3,0-0.5C22.9,25.1,22.8,24.8,22.7,24.5z"/>
	</g>
</g>
<g>
</g>
<g>
</g>
<g>
</g>
<g>
</g>
<g>
</g>
<g>
</g>
</svg>
