<svg viewBox="0 0 32 32" xmlns="http://www.w3.org/2000/svg"><path d="M18.983 8.903a1.154 1.154 0 0 1 0 2.308 1.154 1.154 0 0 1 0-2.308zm5.954 20.171a.914.914 0 0 1-.551-1.644l.002-.002c3.533-2.604 5.8-6.749 5.8-11.423 0-7.814-6.335-14.149-14.149-14.149-.736 0-1.459.056-2.165.165l.079-.01v20.011a.914.914 0 1 1-1.828 0v-20.8a.914.914 0 0 1 .725-.89l.006-.001A15.556 15.556 0 0 1 15.98.023c8.837 0 16 7.163 16 16 0 5.263-2.541 9.933-6.464 12.849l-.043.03a.908.908 0 0 1-.533.171h-.004zM16.011 32C7.189 31.981.045 24.825.045 16c0-5.257 2.535-9.922 6.45-12.838l.042-.03a.915.915 0 0 1 1.088 1.472l-.002.002c-3.533 2.604-5.8 6.749-5.8 11.423 0 7.814 6.335 14.149 14.149 14.149.736 0 1.459-.056 2.165-.165l-.079.01V16.88a.914.914 0 1 1 1.828 0V30.81a.914.914 0 0 1-.714.892l-.006.001c-1.04.194-2.103.297-3.154.297z" style="fill:teal"/></svg>