<svg xmlns="http://www.w3.org/2000/svg" viewBox="0 0 190 50"><defs><style>.cls-1{fill:#0c4da2;}.cls-2{fill:#fc0;}.cls-3{fill:#fff;}</style></defs><title>Asset 2</title><g id="Layer_2" data-name="Layer 2"><g id="Layer_1-2" data-name="Layer 1"><rect class="cls-1" width="190" height="50" rx="8"/><polygon class="cls-2" points="30.93 13.57 31.58 15.58 33.69 15.58 31.98 16.82 32.63 18.83 30.93 17.59 29.23 18.83 29.88 16.82 28.17 15.58 30.28 15.58 30.93 13.57"/><polygon class="cls-2" points="37.02 7.35 37.67 9.36 39.78 9.36 38.08 10.6 38.73 12.61 37.02 11.37 35.32 12.61 35.97 10.6 34.26 9.36 36.37 9.36 37.02 7.35"/><polygon class="cls-2" points="45.7 5 46.35 7.01 48.46 7.01 46.75 8.25 47.41 10.26 45.7 9.02 44 10.26 44.65 8.25 42.94 7.01 45.05 7.01 45.7 5"/><polygon class="cls-2" points="54.28 7.36 54.93 9.37 57.04 9.37 55.33 10.61 55.98 12.62 54.28 11.38 52.58 12.62 53.23 10.61 51.52 9.37 53.63 9.37 54.28 7.36"/><polygon class="cls-2" points="60.6 13.7 61.25 15.71 63.36 15.71 61.65 16.95 62.3 18.96 60.6 17.72 58.89 18.96 59.55 16.95 57.84 15.71 59.95 15.71 60.6 13.7"/><polygon class="cls-2" points="62.94 22.4 63.59 24.41 65.7 24.41 63.99 25.65 64.64 27.66 62.94 26.42 61.23 27.66 61.88 25.65 60.18 24.41 62.29 24.41 62.94 22.4"/><polygon class="cls-2" points="60.59 31.14 61.24 33.15 63.35 33.15 61.64 34.39 62.3 36.4 60.59 35.16 58.88 36.4 59.54 34.39 57.83 33.15 59.94 33.15 60.59 31.14"/><polygon class="cls-2" points="54.27 37.43 54.92 39.44 57.03 39.44 55.33 40.69 55.98 42.7 54.27 41.45 52.57 42.7 53.22 40.69 51.51 39.44 53.62 39.44 54.27 37.43"/><polygon class="cls-2" points="45.72 39.74 46.37 41.75 48.48 41.75 46.77 42.99 47.43 45 45.72 43.76 44.02 45 44.67 42.99 42.96 41.75 45.07 41.75 45.72 39.74"/><polygon class="cls-2" points="37.04 37.39 37.7 39.4 39.8 39.4 38.1 40.64 38.75 42.65 37.04 41.41 35.34 42.65 35.99 40.64 34.28 39.4 36.39 39.4 37.04 37.39"/><polygon class="cls-2" points="30.85 31.09 31.5 33.1 33.61 33.1 31.91 34.35 32.56 36.36 30.85 35.11 29.15 36.36 29.8 34.35 28.09 33.1 30.2 33.1 30.85 31.09"/><polygon class="cls-2" points="28.48 22.24 29.14 24.27 31.27 24.27 29.55 25.53 30.2 27.56 28.48 26.3 26.76 27.56 27.42 25.53 25.7 24.27 27.82 24.27 28.48 22.24"/><path class="cls-3" d="M43.91,25.81H39.69v2.86h5v1.76H37.5V19.77h7.13v1.78H39.69v2.54h4.22Z"/><path class="cls-3" d="M54,19.77v7a3.6,3.6,0,0,1-1.1,2.77,4.22,4.22,0,0,1-3,1,4.28,4.28,0,0,1-3-1,3.56,3.56,0,0,1-1.12-2.72v-7.1H48v7a2,2,0,0,0,.5,1.52,1.94,1.94,0,0,0,1.39.48c1.23,0,1.86-.65,1.88-1.94v-7.1Z"/><path class="cls-3" d="M84.44,26H78.81v3.81h6.61v2.36H75.88V17.92H85.4v2.37H78.81v3.39h5.63Z"/><path class="cls-3" d="M97.9,17.92v9.36A4.79,4.79,0,0,1,96.44,31a5.63,5.63,0,0,1-4,1.36,5.71,5.71,0,0,1-4-1.32A4.72,4.72,0,0,1,87,27.39V17.92h2.93V27.3a2.71,2.71,0,0,0,.67,2,2.58,2.58,0,0,0,1.85.64c1.64,0,2.48-.87,2.51-2.6V17.92Z"/><path class="cls-3" d="M109.49,30.06a1.89,1.89,0,0,0,1.27-.43,1.57,1.57,0,0,0,.51-1.15h2.64a3.58,3.58,0,0,1-.58,2,3.88,3.88,0,0,1-1.58,1.39,4.94,4.94,0,0,1-2.21.49A4.6,4.6,0,0,1,106,30.89a5.72,5.72,0,0,1-1.31-4v-.18a5.67,5.67,0,0,1,1.3-3.9,4.56,4.56,0,0,1,3.57-1.46,4.46,4.46,0,0,1,3.18,1.13,4,4,0,0,1,1.21,3h-2.64a2,2,0,0,0-.51-1.34,1.88,1.88,0,0,0-2.78.2,4.13,4.13,0,0,0-.5,2.33V27a4.22,4.22,0,0,0,.49,2.34A1.73,1.73,0,0,0,109.49,30.06Z"/><path class="cls-3" d="M115.5,18.84a1.4,1.4,0,0,1,.43-1.05,1.83,1.83,0,0,1,2.31,0,1.4,1.4,0,0,1,.43,1.05,1.37,1.37,0,0,1-.44,1.05,1.8,1.8,0,0,1-2.29,0A1.37,1.37,0,0,1,115.5,18.84Zm3,13.3h-2.83V21.57h2.83Z"/><path class="cls-3" d="M124.21,19v2.6H126v2.07h-1.8v5.27a1.26,1.26,0,0,0,.22.84,1.13,1.13,0,0,0,.86.26,5,5,0,0,0,.83-.07v2.14a5.75,5.75,0,0,1-1.71.25q-3,0-3-3V23.64h-1.54V21.57h1.54V19Z"/><path class="cls-3" d="M127.56,18.84a1.4,1.4,0,0,1,.43-1.05,1.83,1.83,0,0,1,2.31,0,1.4,1.4,0,0,1,.43,1.05,1.37,1.37,0,0,1-.44,1.05,1.8,1.8,0,0,1-2.29,0A1.37,1.37,0,0,1,127.56,18.84Zm3,13.3h-2.83V21.57h2.83Z"/><path class="cls-3" d="M136.13,29.86h5.16v2.28h-8.76V30.42l5-6.57h-4.83V21.57h8.47v1.66Z"/><path class="cls-3" d="M147.77,32.33A5.17,5.17,0,0,1,144,30.91a5,5,0,0,1-1.46-3.8v-.28a6.34,6.34,0,0,1,.61-2.84,4.56,4.56,0,0,1,1.74-1.94,4.94,4.94,0,0,1,2.58-.68,4.39,4.39,0,0,1,3.41,1.37,5.57,5.57,0,0,1,1.25,3.88v1.15h-6.73a2.61,2.61,0,0,0,.82,1.66,2.49,2.49,0,0,0,1.75.63,3.06,3.06,0,0,0,2.54-1.18l1.39,1.55a4.26,4.26,0,0,1-1.72,1.4A5.69,5.69,0,0,1,147.77,32.33Zm-.32-8.68a1.78,1.78,0,0,0-1.37.57,2.94,2.94,0,0,0-.66,1.63h3.92v-.23a2,2,0,0,0-.51-1.45A1.77,1.77,0,0,0,147.45,23.65Z"/><path class="cls-3" d="M156.31,21.57l.09,1.22a3.71,3.71,0,0,1,3-1.42,3.06,3.06,0,0,1,2.5,1,4.57,4.57,0,0,1,.84,2.95v6.83H160V25.38a1.85,1.85,0,0,0-.39-1.31,1.76,1.76,0,0,0-1.3-.4,1.94,1.94,0,0,0-1.79,1v7.45h-2.82V21.57Z"/></g></g></svg>