<svg width="3159.986" height="605.826" xmlns="http://www.w3.org/2000/svg"><g style="fill:#3a8500;fill-opacity:1" fill="#000"><path d="M2 10.04v7.98h1.98v2H0v-9.98h2zm7.96 0v9.98H5.98v-2h1.98v-7.98h2zm-3.98 3.98v4h-2v-4h2z" style="fill:#3a8500;fill-opacity:1" transform="matrix(40.13003 0 0 40.13003 79.993 -282.916)"/><path d="M17.4 6h2.28l-4.34 14h-2.28L9.94 9.6 6.8 20H4.52L.2 6h2.28l3.24 10.98L8.96 6h1.96l3.24 10.96zm13.642 14-1.34-3.4h-6.66l-1.34 3.4h-2.26l5.54-14h2.78l5.54 14h-2.26zm-7.26-5.32h5.18l-2.58-6.62zM36.444 18h7.36v2h-9.54V6h2.18v12zM50.806 6c4.2 0 6.8 2.94 6.8 7 0 4.04-2.56 7-6.8 7h-5.7V6h5.7zm-.04 12.04c2.9 0 4.66-2.14 4.66-5.08 0-2.88-1.76-5-4.66-5h-3.5v10.08h3.5zM68.668 6h2.2v8.34c0 3.52-2.14 5.92-5.92 5.92s-5.9-2.4-5.9-5.92V6h2.18v8.3c0 2.32 1.26 3.96 3.72 3.96s3.72-1.64 3.72-3.96V6zM82.03 20l-3.42-5.2h-3.54V20h-2.16V6h6.66c2.96 0 4.6 2.28 4.6 4.42 0 1.84-1.14 3.64-3.26 4.2L84.53 20h-2.5zM75.07 7.94v4.94h4.38c1.64 0 2.62-1.16 2.62-2.46s-1-2.48-2.56-2.48h-4.44z" style="fill:#3a8500;fill-opacity:1" transform="matrix(28.46033 0 0 28.46033 674.247 -50.773)"/></g></svg>